<svg id="Layer_1" data-name="Layer 1" xmlns="http://www.w3.org/2000/svg" viewBox="0 0 1280 800"><defs><style>.cls-1{fill:#eec860;}</style></defs><path class="cls-1" d="M55.71,352.59c-6.58,4.15-9.87,6.27-16.39,10.56l10.11-89.44c6.41-4.2,9.64-6.32,16.16-10.42Q60.63,307.95,55.71,352.59Z"/><path class="cls-1" d="M114.21,234.3q27.53-15.21,55.7-29.13c-.52,5.83-.79,8.75-1.32,14.59q-19.76,9.74-39.18,20c-.82,8.34-1.23,12.51-2.06,20.85q17.79-9.46,35.81-18.41l-1.34,14.58q-18.07,9-35.9,18.46-1.58,15.93-3.13,31.85c-6.79,3.65-10.16,5.51-16.9,9.28Q110,275.36,114.21,234.3Z"/><path class="cls-1" d="M175.35,249.53q2.21-24.53,4.39-49.06c6.81-3.23,10.23-4.81,17.13-7.91q-2.1,24.32-4.19,48.63c-2.24,10.63,5.71,17.63,15.81,12.27C219,247.91,226.91,238.59,228,226l3.8-48.52c6.94-2.86,10.41-4.25,17.39-7q-1.91,24.39-3.72,48.78c-2,22.84-18,39.64-38.2,48.69C189.93,275.73,172.51,271.92,175.35,249.53Z"/><path class="cls-1" d="M282.28,172.3q-12.93,4.53-25.74,9.43c.44-5.8.66-8.69,1.08-14.47Q292,154.38,327,143.53c-.35,5.76-.53,8.64-.88,14.4q-13.14,4-26.17,8.33-2.22,33.18-4.41,66.37c-7.18,2.39-10.76,3.62-17.91,6.13Q280,205.54,282.28,172.3Z"/><path class="cls-1" d="M332.77,189.43q1.44-24.24,2.85-48.52c7.14-2.1,10.71-3.12,17.86-5.1l-2.71,48.1c-1.71,11,6.38,18.41,17.18,14.91,11.2-3.63,19-12.06,19.58-24.38l2.37-48c7.2-1.72,10.82-2.55,18.08-4.15q-1.1,24.16-2.21,48.32c-.31,22.22-18.61,37.22-38.54,42.59C348.51,218.26,330.77,211.47,332.77,189.43Z"/><path class="cls-1" d="M424.65,118.77q19.8-4,39.71-7.34c14.51-3.35,31.48,3.44,30.69,20.45-.68,14.64-14.51,25.83-28.44,27.59l-1.18.19q14.93,13.43,29.78,26.92c-9.81,1.31-14.72,2-24.51,3.57Q455.87,176,441,162q-.65,16.73-1.3,33.46c-7.38,1.38-11.06,2.1-18.43,3.6Zm34.64,29.83c12.56-2.13,17.32-6.58,17.53-13.87.26-8.13-5.27-10.29-16.74-8.35-7.15,1.21-10.72,1.84-17.85,3.17-.34,8.9-.52,13.32-.87,22.24C448.53,150.45,452.12,149.82,459.29,148.6Z"/><path class="cls-1" d="M569.31,159.82q-21.93,1.53-43.76,3.74c-3.25,8.09-4.87,12.15-8.15,20.27-7.7.88-11.56,1.34-19.25,2.35q17.4-41.87,34.66-83.83,15.72-1.5,31.46-2.68,15.81,39.12,31.88,78.14c-7.74.31-11.6.5-19.35.95C573.78,171.17,572.28,167.38,569.31,159.82Zm-37.79-11.14q16.18-1.55,32.29-2.76-7.74-18.9-15.44-37.82Q540,128.39,531.52,148.68Z"/><path class="cls-1" d="M659.83,111.44q-13.51-.27-27-.16V97c24.19,0,48.28.61,72.43,1.91l.18,14.27q-13.56-.85-27.14-1.31l.49,65.65c-7.47-.26-11.21-.37-18.69-.5Z"/><path class="cls-1" d="M715.87,99.64Q736,101.16,756,103.22c16,1.53,31.2,12.14,32.24,29,.89,14.63-15,21.21-27.16,20l-1.19-.13q15.92,17.6,31.66,35.32c-9.81-1.37-14.72-2-24.56-3.14Q751.1,166,735.1,147.72q.31,16.69.62,33.38c-7.46-.66-11.19-.95-18.65-1.47ZM753,139.28c12.66,1.32,17.12-1.83,17-9.16-.19-8.08-5.91-11.81-17.44-13-7.19-.75-10.8-1.1-18-1.72.16,8.86.25,13.32.41,22.16,7.22.67,10.84,1,18.06,1.74Z"/><path class="cls-1" d="M796.79,148.29c-1-24.64,19-39.27,42.55-34.47,25,5.11,44,25.28,45.67,51.07,1.63,25.31-19.74,36.76-42.41,32.6C818.64,193.08,797.89,173.56,796.79,148.29Zm70,12.55c-1.17-14.27-12.61-29.63-26.92-32.69s-24.86,9.75-24.74,23c.16,15.22,12.08,29.34,26.88,32C856,185.7,868,175.32,866.82,160.84ZM862,112.2c-15.22-3.23-30.51-6.06-45.85-8.63-.14-4.26-.21-6.39-.37-10.65q23,3.84,45.76,8.56C861.7,105.79,861.79,107.93,862,112.2Z"/><path class="cls-1" d="M967.28,172.57c1.46,17.06-15.4,22.44-29.12,17.48-8.44-2.4-12.69-3.56-21.17-5.8l1.54,28.64c-7.29-1.91-10.94-2.86-18.25-4.64l-4.09-80.42q19.59,4.88,39,10.3C951.06,142.58,965.81,155.44,967.28,172.57Zm-17.74-5.46c-.49-8.18-6.12-12.51-17.39-15.68-6.86-1.9-10.29-2.85-17.18-4.67.49,9.25.74,13.87,1.25,23.11,6.91,1.83,10.37,2.76,17.25,4.7,12.35,3.47,16.57.75,16.07-7.46Z"/><path class="cls-1" d="M1000.44,237.91c-7.16-2.5-10.75-3.72-17.93-6.09L977.17,151c7.08,2.34,10.61,3.53,17.65,6Q997.63,197.46,1000.44,237.91Z"/><path class="cls-1" d="M1010.53,202.06c-2.25-24.41,17.34-35.14,38.69-26.07,16.76,7.12,33.36,22.64,36.85,41.34-6.89-3.12-10.35-4.64-17.27-7.61-2.72-8.75-10.58-15.44-18.31-19.15-13.5-6.49-23.34,5.22-22.33,18,1.29,16.13,12.06,31.6,27,37.81,10.61,4.41,17.37,1.27,17.68-3.63,7,3,10.47,4.56,17.36,7.71,1.52,19.68-23.68,14-33.63,10.53C1032.8,252.52,1013,228.3,1010.53,202.06Z"/><path class="cls-1" d="M1156.25,287.49q-19.83-10.73-40.14-20.55c-2.12,6.54-3.2,9.82-5.35,16.38-7.15-3.41-10.74-5.09-17.94-8.36q11.73-33.52,23.15-67.17,14.51,7.23,28.85,14.76L1182.71,321c-6.94-4-10.46-5.92-17.44-9.76C1161.64,301.7,1159.83,297,1156.25,287.49ZM1120,254.92q14.88,7.44,29.6,15.16l-18.54-47.67Q1125.63,238.7,1120,254.92Z"/><path class="cls-1" d="M1241.19,363.15c-6.53-4.29-9.8-6.41-16.4-10.56q-4.9-44.65-9.82-89.3c6.47,4.1,9.69,6.17,16.1,10.38Q1236.14,318.41,1241.19,363.15Z"/><path class="cls-1" d="M40.49,524.57c-3.38-7.69-5.06-11.5-8.44-19.21a1235.09,1235.09,0,0,0,126.09,69.25l6.66,18.25A1227,1227,0,0,1,40.49,524.57Z"/><path class="cls-1" d="M299.38,691.94q-12.74-44.84-25.5-89.68C264,625.51,255.12,649,247.32,673c-14.34-5.61-28.54-11.6-42.6-17.82L169,553.77q12.15,5.4,24.45,10.52l30.94,91.85C231.66,632.3,240,609,249.45,586q23.43,8.24,47.09,15.69,13,48.9,26.07,97.79C313.29,696.57,308.65,695.06,299.38,691.94Z"/><path class="cls-1" d="M423.87,709.07c1.25,6.83,1.9,10.24,3.13,17.07q-40.78-8.5-80.74-19.67-12.06-48.59-24.11-97.21,43.34,12.11,87.35,21.23c1.25,6.83,1.9,10.25,3.12,17.07q-30.72-6.39-61.11-14.12l5.07,22.1q27.18,7.11,54.71,12.78c1.27,6.84,1.9,10.26,3.2,17.13q-27.12-5.62-53.94-12.6l5.23,22.83Q394.7,703,423.87,709.07Z"/><path class="cls-1" d="M456.83,639.05c10.34,1.65,15.51,2.42,25.88,3.81l9.81,77.76q17.88,2.45,35.82,4.29L530,741.75q-47.39-5.16-94.19-13.93l-2.93-17q17.66,3.44,35.42,6.25Z"/><path class="cls-1" d="M536,648.9c10.4,1,15.62,1.35,26,2.05q1.25,19.62,2.47,39.23,20.5-18.72,41.32-37.1,17.24.49,34.5.5-21.16,18-42.17,36.09l1.64.06c16.28.45,38.06,8.74,38.22,28.2.14,22-23.06,29.6-41.48,28.62q-26.38-1.21-52.65-3.43Q539.9,696,536,648.9Zm29.26,53.28c.66,10.42.95,15.63,1.64,26.06,9.57.65,14.36,1,23.94,1.34,8.78.51,22.9-.32,22.59-12.2s-14.56-13.52-23.7-13.83c-9.8-.47-14.69-.75-24.47-1.41Z"/><path class="cls-1" d="M712.36,649.31c27.78-2,61.43,10.07,57.59,43.61-3.56,31.23-33.4,52.79-63.31,54.44-27.94,1.54-58.45-15.56-57.58-46.9C650,666.9,682.9,651.43,712.36,649.31Zm-1,16.79c-18.54,1.24-36.59,13.88-37.2,33.87-.57,18.81,15.22,31.82,33.44,30.6,18.82-1.26,35.47-15.83,37.32-35,1.89-19.85-15.58-30.67-33.59-29.46Z"/><path class="cls-1" d="M847.33,633c26.89-5.2,58.9,3.53,51.45,37.19-7,31.86-36.93,56-67.83,62.15-27.88,5.54-55.09-9.93-51.73-40.5C783,658.12,817.14,638.8,847.33,633Zm-2.81,17c-18.51,4.1-37,18.77-40.36,38.42-3,17.74,12.67,30.28,29.59,26.9,19.27-3.8,36.27-20.22,40.39-39.57,4-18.68-12.67-29.49-29.62-25.74Z"/><path class="cls-1" d="M950.09,611.45c10.15-2.8,15.22-4.27,25.3-7.31L954.46,684.3q17.44-5.25,34.69-11.09l-5,17.58q-45.52,15.13-92,26.64c1.47-6.88,2.21-10.31,3.69-17.19q17.55-4.25,35-9.06Q940.42,651.31,950.09,611.45Z"/><path class="cls-1" d="M1070.6,569c12.58-5,46.68-15,36.71,11.27-7.74,20.44-28.24,33.83-46,45.15-8.13,4.93-12.2,7.35-20.31,12.1-11.59,6.76-15.3,11.48-16.54,15.45-2,6.4,2.95,9,16.37,3.57,10.61-4.28,21.73-11.16,26.36-22.19,9.28-3.92,13.89-5.93,23.09-10.07-8.46,23.46-31.79,40.24-54,49.25-12.17,5-43,10.25-34.89-13.61,6.31-18.51,24.74-29.59,40.54-39.39,8.23-4.76,12.37-7.18,20.6-12.1,7.84-4.41,18.13-10.08,21.34-18.87,3.48-9.51-8.31-7.34-18.93-3.11-11.36,4.54-25.49,11.66-30.28,23.79-9.71,3.6-14.59,5.34-24.37,8.72C1018.4,593.77,1047.83,578.05,1070.6,569Z"/><path class="cls-1" d="M1115.21,592.86l6.66-18.25A1236,1236,0,0,0,1248,505.36c-3.37,7.69-5.06,11.53-8.43,19.21A1227,1227,0,0,1,1115.21,592.86Z"/><path class="cls-1" d="M554.44,59H559v-8.7l8.15,8.7h5.9l-8.94-9L574,37h-5.64l-7.28,9.91-2-2.17V37h-4.59Z"/><path class="cls-1" d="M581,37h-4.59V59H581Z"/><path class="cls-1" d="M594,43.38c0,4.07,2.46,7.13,2.46,9.53a2.63,2.63,0,0,1-2.56,2.69,3.11,3.11,0,0,1-.43,0c-1.82,0-3.27-1.07-3.27-3.93s1.42-5.37,1.42-8.21c0-3.64-2.37-6.41-7.58-6.41V41a2.77,2.77,0,0,1,3,2.56c0,.11,0,.21,0,.32,0,1.82-1.4,4.33-1.4,7.92,0,5.46,3.11,7.72,8.23,7.72s7.28-2.48,7.28-5.85c0-3.64-2.46-5.89-2.46-9.44,0-2.19.91-3.64,3-3.64s3.3,1.34,3.3,4.06-1.58,5.2-1.58,8.35c0,3.81,2.33,6.12,7.73,6.12v-4c-1.93,0-3.15-.82-3.15-2.55s1.59-4.62,1.59-8.39c0-5.26-3.1-7.61-7.92-7.61C596.31,36.55,594,39.28,594,43.38Z"/><path class="cls-1" d="M612.51,43.43h4.59c0-2.26,2.62-3,4.88-3s4.38.62,4.38,2.77c0,1.44-1.11,2-3.33,2.53l-3.64,1c-4.95,1.34-6.19,3.64-6.19,6.11,0,4.41,3.9,6.67,8.74,6.67,4.26,0,8.72-1.73,8.72-6.72H626c0,1.82-1.73,2.89-4.35,2.89s-3.94-1.07-3.94-2.49c0-.87.5-1.82,2.59-2.29l3.64-1c5.3-1.43,6.92-3.42,6.92-6.48,0-4.8-4-6.84-8.92-6.84C616.33,36.55,612.51,39.32,612.51,43.43Z"/><path class="cls-1" d="M654.22,37h-4.59v9.1H638.91V37h-4.59V59h4.59v-9.1h10.72V59h4.59Z"/><path class="cls-1" d="M674.15,42.36H663.23L661.41,37h-4.73l8.11,22h8l8-22h-4.75Zm-9.41,3.93h8l-4,10.76Z"/><path class="cls-1" d="M681.74,43.43h4.59c0-2.26,2.62-3,4.88-3s4.41.62,4.41,2.77c0,1.44-1.13,2-3.35,2.53l-3.64,1c-5,1.34-6.19,3.64-6.19,6.11,0,4.41,3.89,6.67,8.75,6.67,4.26,0,8.72-1.73,8.72-6.72h-4.62c0,1.82-1.82,2.89-4.37,2.89S687,54.59,687,53.17c0-.87.49-1.82,2.58-2.29l3.64-1c5.28-1.43,7-3.42,7-6.48,0-4.8-4.06-6.84-9-6.84C685.51,36.55,681.74,39.32,681.74,43.43Z"/><path class="cls-1" d="M718.84,42.36H708L706.12,37h-4.75l8.14,22h7.86l8.19-22h-4.82Zm-9.41,3.93h8l-4,10.76Z"/></svg>