<svg id="Layer_1" data-name="Layer 1" xmlns="http://www.w3.org/2000/svg" viewBox="0 0 1279.5 269.95"><defs><style>.cls-1{fill:#eec860;}</style></defs><path class="cls-1" d="M9.62,27.94C6.07,19.86,4.3,15.82.75,7.75A1299.83,1299.83,0,0,0,133.28,80.53l7,19.18A1291.4,1291.4,0,0,1,9.62,27.94Z"/><path class="cls-1" d="M281.73,203.88l-26.8-94.27C244.51,134.05,235.21,158.7,227,184c-15.07-5.9-30-12.18-44.77-18.73q-18.78-53.29-37.57-106.6,12.77,5.7,25.7,11.06l32.52,96.55c7.66-25.07,16.44-49.52,26.36-73.78q24.62,8.66,49.49,16.49,13.69,51.39,27.4,102.78C296.35,208.71,291.47,207.14,281.73,203.88Z"/><path class="cls-1" d="M412.57,221.8c1.32,7.18,2,10.77,3.29,17.94Q373,230.85,331,219.13,318.33,168,305.66,117q45.55,12.72,91.81,22.31c1.31,7.18,2,10.77,3.28,18q-32.29-6.71-64.23-14.84c2.13,9.29,3.2,13.93,5.33,23.22q28.56,7.49,57.5,13.43c1.34,7.19,2,10.78,3.36,18q-28.5-5.91-56.69-13.24l5.5,24Q381.91,215.43,412.57,221.8Z"/><path class="cls-1" d="M447.21,148.26c10.87,1.73,16.31,2.54,27.21,4q5.15,40.86,10.31,81.72,18.78,2.56,37.65,4.51l1.7,17.7q-49.8-5.4-99-14.64L422,223.66q18.56,3.6,37.23,6.58Z"/><path class="cls-1" d="M530.39,158.62c10.94,1,16.42,1.41,27.37,2.15q1.31,20.61,2.6,41.23,21.55-19.68,43.43-39,18.12.54,36.26.53-22.24,18.87-44.32,37.93l1.72.07c17.11.47,40,9.18,40.17,29.64.15,23.16-24.23,31.1-43.6,30.07q-27.72-1.26-55.33-3.6Q534.53,208.13,530.39,158.62Zm30.76,55.95c.69,11,1,16.44,1.72,27.39,10.06.68,15.09,1,25.16,1.42,9.23.52,24.07-.34,23.75-12.84S596.47,216.33,586.87,216C576.57,215.55,571.43,215.26,561.15,214.57Z"/><path class="cls-1" d="M715.79,159c29.2-2.1,64.56,10.58,60.53,45.84-3.74,32.83-35.11,55.48-66.54,57.22-29.37,1.62-61.44-16.35-60.52-49.3C650.25,177.54,684.83,161.27,715.79,159Zm-1,17.65c-19.49,1.31-38.46,14.6-39.1,35.6-.6,19.78,16,33.45,35.15,32.16,19.78-1.33,37.28-16.64,39.22-36.79C752.05,186.79,733.69,175.42,714.76,176.69Z"/><path class="cls-1" d="M857.65,141.86c28.26-5.47,61.9,3.7,54.07,39.09-7.4,33.48-38.81,58.87-71.29,65.32-29.3,5.82-57.9-10.44-54.37-42.57C790,168.3,825.92,148,857.65,141.86Zm-2.95,17.88c-19.46,4.3-38.91,19.72-42.43,40.38-3.17,18.65,13.32,31.82,31.11,28.27,20.25-4,38.12-21.25,42.45-41.59C890,167.15,872.51,155.8,854.7,159.74Z"/><path class="cls-1" d="M965.65,119.25c10.67-3,16-4.49,26.6-7.69q-11,42.13-22,84.27,18.33-5.54,36.46-11.67l-5.3,18.49q-47.85,15.9-96.72,28l3.88-18.08Q927,208.11,945.33,203,955.49,161.15,965.65,119.25Z"/><path class="cls-1" d="M1092.32,74.61c13.22-5.27,49.06-15.8,38.58,11.83-8.14,21.5-29.68,35.56-48.4,47.47-8.55,5.17-12.82,7.71-21.35,12.71-12.18,7.1-16.08,12.06-17.38,16.24-2.08,6.72,3.1,9.44,17.2,3.75,11.16-4.49,22.84-11.73,27.71-23.33,9.75-4.11,14.6-6.23,24.27-10.58-8.89,24.66-33.42,42.29-56.74,51.77-12.79,5.2-45.22,10.78-36.67-14.31,6.63-19.46,26-31.09,42.61-41.39,8.65-5,13-7.55,21.65-12.73,8.24-4.63,19.06-10.59,22.43-19.83,3.66-10-8.73-7.72-19.89-3.27-11.95,4.77-26.8,12.26-31.83,25-10.21,3.78-15.34,5.61-25.62,9.16C1037.45,100.67,1068.38,84.14,1092.32,74.61Z"/><path class="cls-1" d="M1139.2,99.71l7-19.18A1300.74,1300.74,0,0,0,1278.75,7.75c-3.54,8.07-5.32,12.11-8.86,20.19A1291.55,1291.55,0,0,1,1139.2,99.71Z"/></svg>