<svg id="Layer_1" data-name="Layer 1" xmlns="http://www.w3.org/2000/svg" viewBox="0 0 515.26 43.7"><defs><style>.cls-1{fill:#c6c6c6;}</style></defs><polygon class="cls-1" points="0 35.65 0 38.95 6.85 41.23 6.85 39.25 0.93 37.34 6.85 35.44 6.85 33.38 0 35.65"/><rect class="cls-1" x="8.59" y="36.31" width="11.26" height="1.84"/><rect class="cls-1" x="21.52" y="36.31" width="11.26" height="1.84"/><rect class="cls-1" x="34.46" y="36.31" width="11.26" height="1.84"/><rect class="cls-1" x="47.4" y="36.31" width="11.26" height="1.84"/><rect class="cls-1" x="60.34" y="36.31" width="11.26" height="1.84"/><rect class="cls-1" x="73.27" y="36.31" width="11.26" height="1.84"/><rect class="cls-1" x="86.21" y="36.31" width="11.26" height="1.84"/><rect class="cls-1" x="99.15" y="36.31" width="11.26" height="1.84"/><rect class="cls-1" x="112.08" y="36.31" width="11.26" height="1.84"/><rect class="cls-1" x="125.02" y="36.31" width="11.26" height="1.84"/><rect class="cls-1" x="137.96" y="36.31" width="11.26" height="1.84"/><rect class="cls-1" x="150.9" y="36.31" width="11.26" height="1.84"/><rect class="cls-1" x="163.83" y="36.31" width="11.26" height="1.84"/><rect class="cls-1" x="176.77" y="36.31" width="11.26" height="1.84"/><rect class="cls-1" x="189.71" y="36.31" width="11.26" height="1.84"/><rect class="cls-1" x="202.64" y="36.31" width="11.26" height="1.84"/><polygon class="cls-1" points="226.32 33.19 221.67 42.58 221.67 33.19 219.61 33.19 219.61 43.48 223.47 43.48 228.13 34.1 228.13 43.48 230.19 43.48 230.19 33.19 226.32 33.19"/><polygon class="cls-1" points="232.28 33.19 232.28 43.48 239.32 43.48 239.32 41.64 234.34 41.64 234.34 39.22 238.88 39.22 238.88 37.38 234.34 37.38 234.34 35.03 239.32 35.03 239.32 33.19 232.28 33.19"/><polygon class="cls-1" points="243.1 33.19 243.1 41.64 240.09 41.64 240.09 43.48 248.19 43.48 248.19 41.64 245.16 41.64 245.16 33.19 243.1 33.19"/><path class="cls-1" d="M253.45,38.79c1.41,0,1.92.48,1.92,1.43s-.63,1.42-1.92,1.42h-2V38.79Zm-4.07,4.69h4.5c2.3,0,3.54-1.28,3.54-3.24a2.94,2.94,0,0,0-3.1-3h-.14l3.43-4h-2.72l-3.45,4.29V33.19h-2.06Z"/><path class="cls-1" d="M266.2,38.33c0,1.87-1.07,3.53-2.92,3.53s-2.89-1.66-2.89-3.53,1.06-3.52,2.89-3.52,2.92,1.66,2.92,3.52m-7.87,0c0,3.05,1.85,5.37,4.95,5.37s5-2.32,5-5.37-1.85-5.36-5-5.36-4.95,2.32-4.95,5.36"/><path class="cls-1" d="M276.88,38.33c0,1.87-1.06,3.53-2.91,3.53s-2.89-1.66-2.89-3.53,1.06-3.52,2.89-3.52,2.91,1.66,2.91,3.52m-7.86,0c0,3.05,1.85,5.37,5,5.37s5-2.32,5-5.37S277.09,33,274,33s-5,2.32-5,5.36"/><polygon class="cls-1" points="282.26 33.19 282.26 41.64 279.25 41.64 279.25 43.48 287.35 43.48 287.35 41.64 284.32 41.64 284.32 33.19 282.26 33.19"/><rect class="cls-1" x="301.28" y="36.31" width="11.26" height="1.84"/><rect class="cls-1" x="314.21" y="36.31" width="11.26" height="1.84"/><rect class="cls-1" x="327.15" y="36.31" width="11.26" height="1.84"/><rect class="cls-1" x="340.09" y="36.31" width="11.26" height="1.84"/><rect class="cls-1" x="353.03" y="36.31" width="11.26" height="1.84"/><rect class="cls-1" x="365.96" y="36.31" width="11.26" height="1.84"/><rect class="cls-1" x="378.9" y="36.31" width="11.26" height="1.84"/><rect class="cls-1" x="391.84" y="36.31" width="11.26" height="1.84"/><rect class="cls-1" x="404.77" y="36.31" width="11.26" height="1.84"/><rect class="cls-1" x="417.71" y="36.31" width="11.26" height="1.84"/><rect class="cls-1" x="430.65" y="36.31" width="11.26" height="1.84"/><rect class="cls-1" x="443.58" y="36.31" width="11.26" height="1.84"/><rect class="cls-1" x="456.52" y="36.31" width="11.26" height="1.84"/><rect class="cls-1" x="469.46" y="36.31" width="11.26" height="1.84"/><rect class="cls-1" x="482.4" y="36.31" width="11.26" height="1.84"/><path class="cls-1" d="M287.87,36.19h2.05c0-1.06,1.18-1.43,2.19-1.43s2,.3,2,1.3c0,.67-.5.91-1.49,1.19l-1.65.47c-2.22.63-2.78,1.7-2.78,2.86,0,2.06,1.75,3.12,3.93,3.12,1.9,0,3.9-.81,3.9-3.15h-2.05c0,.87-.78,1.35-2,1.35s-1.76-.5-1.76-1.16c0-.41.22-.8,1.16-1.07L293,39.2c2.36-.67,3.11-1.6,3.11-3,0-2.24-1.84-3.2-4-3.2-2.54,0-4.24,1.29-4.24,3.22"/><rect class="cls-1" x="495.33" y="36.31" width="11.26" height="1.84"/><polygon class="cls-1" points="508.42 35.44 514.34 37.34 508.42 39.25 508.42 41.23 515.26 38.95 515.26 35.65 508.42 33.38 508.42 35.44"/><rect class="cls-1" x="121.42" width="4.07" height="21.99"/><polygon class="cls-1" points="137.59 21.99 151.09 21.99 151.09 18.36 141.65 18.36 141.65 13.19 150.25 13.19 150.25 9.56 141.65 9.56 141.65 1.66 137.59 1.66 137.59 21.99"/><path class="cls-1" d="M153.46,9.76V22h4.06V9.85c0-3.11,1.08-5,4.1-5s4.16,1.89,4.16,5V22h4.06V9.76c0-5.84-3.48-8.54-8.22-8.54s-8.16,2.7-8.16,8.54"/><polygon class="cls-1" points="177.78 18.36 171.83 18.36 171.83 21.99 187.84 21.99 187.84 18.36 181.85 18.36 181.85 1.66 177.78 1.66 177.78 18.36"/><path class="cls-1" d="M189.82,9.76V22h4.07V9.85c0-3.11,1.07-5,4.09-5s4.16,1.89,4.16,5V22h4.07V9.76c0-5.84-3.49-8.54-8.23-8.54s-8.16,2.7-8.16,8.54"/><path class="cls-1" d="M218,12.72c2.79,0,3.81,1,3.81,2.82,0,2.07-1.25,2.82-3.81,2.82h-4V12.72ZM210,22h8.89c4.56,0,7-2.52,7-6.39a5.82,5.82,0,0,0-6.13-5.95h-.26l6.76-8h-5.37L214,10.14V1.66H210Z"/><path class="cls-1" d="M234,10.23h7.09l-3.54,9.93Zm8.34-3.63h-9.59L231.1,1.66h-4.22L234.09,22h7l7.21-20.33h-4.22Z"/><polygon class="cls-1" points="262.2 18.36 256.24 18.36 256.24 21.99 272.25 21.99 272.25 18.36 266.27 18.36 266.27 1.66 262.2 1.66 262.2 18.36"/><path class="cls-1" d="M282.66,12.72c2.79,0,3.81,1,3.81,2.82,0,2.07-1.25,2.82-3.81,2.82h-4V12.72ZM274.61,22h8.89c4.56,0,7-2.52,7-6.39a5.82,5.82,0,0,0-6.14-5.95h-.26l6.77-8h-5.37l-6.83,8.48V1.66h-4.07Z"/><path class="cls-1" d="M307.25,24H297v2.7h10.28Zm.61-12.17c0,3.68-2.09,7-5.75,7s-5.73-3.29-5.73-7,2.09-7,5.73-7,5.75,3.29,5.75,7m-15.54,0c0,6,3.66,10.6,9.79,10.6s9.82-4.59,9.82-10.6-3.66-10.61-9.82-10.61-9.79,4.59-9.79,10.61"/><path class="cls-1" d="M326.67,15.63c0,2.06-1.25,2.73-3.81,2.73H319V12.52h3.89c2.79,0,3.81,1.05,3.81,3.11m4,0c0-3.92-2.59-6.74-7-6.74H319V1.66H314.9V22h8.83c4.39,0,7-2.55,7-6.36"/><rect class="cls-1" x="333.36" y="1.66" width="4.07" height="20.34"/><path class="cls-1" d="M340.4,11.83c0,6.27,3.92,10.6,9.73,10.6,5.64,0,8.05-4.07,8.16-6.59h-4.07a3.89,3.89,0,0,1-4.06,3c-3.4,0-5.7-2.91-5.7-7s2.36-7,5.76-7c2.47,0,4.15,1.57,4.32,2.88h4.07c-.09-2.85-2.88-6.51-8.34-6.51-6,0-9.87,4.39-9.87,10.61"/><path class="cls-1" d="M365.89,10.23H373l-3.54,9.93Zm8.33-3.63h-9.58L363,1.66h-4.21L365.94,22h7l7.2-20.33h-4.21Z"/><rect class="cls-1" x="390.27" width="4.07" height="21.99"/></svg>