<svg xmlns="http://www.w3.org/2000/svg" xmlns:xlink="http://www.w3.org/1999/xlink" viewBox="0 0 85.96 55.45"><defs><style>.cls-1{fill:none;}.cls-2{isolation:isolate;}.cls-3{clip-path:url(#clip-path);}.cls-4{mix-blend-mode:multiply;}.cls-5{fill:#eec860;}</style><clipPath id="clip-path"><rect class="cls-1" x="902.88" y="2.78" width="666" height="490"/></clipPath></defs><g class="cls-2"><g id="Layer_1" data-name="Layer 1"><g class="cls-3"><image class="cls-4" width="1600" height="1000" transform="translate(-195.42 -123.47) scale(1.33)" xlink:href="FUTUTR0PICA/3%E2%80%94RHIZOMES/RhizomesLow.png"/></g><path class="cls-5" d="M6.81,53.45C-.21,31.13,3.24,5.3,10.93,2.3c1.89-.73,4.64-.44,7.48,4.6a7.73,7.73,0,0,1,2.36-2.05c1.51-.81,4.56-1.51,8,2.87a21.92,21.92,0,0,1,1.63,2.36A9.1,9.1,0,0,1,33.2,7.13c1.3-.78,3.92-1.62,6.87,1.62a19,19,0,0,1,2.3,3.18,8.77,8.77,0,0,1,2.08-2.22c2-1.42,4.17-1.17,6.15.69A14.27,14.27,0,0,1,53,13.3a7.38,7.38,0,0,1,1.82-1.8c1.18-.78,3.59-1.66,6.51,1.14a13.33,13.33,0,0,1,1.65,1.92,6.57,6.57,0,0,1,1.21-1.06c1.18-.8,3.57-1.75,6.36.88a11.93,11.93,0,0,1,1.7,2,6.54,6.54,0,0,1,.72-.68,3.88,3.88,0,0,1,4.78-.48c5.44,3.47,6.61,15.6,3.75,23.1l-2.15-.82c2.7-7.11,1.22-17.75-2.84-20.33-.44-.29-1.09-.51-2.07.3a6.22,6.22,0,0,0-1,1.05,25.42,25.42,0,0,1,2.1,8.23c.41,4.26,0,8.89-1.06,11.53C73.84,39.84,73,40.64,72,40.64h0c-1.56,0-2.3-1.86-2.54-2.48C66.87,31.73,68,23.23,70.75,18.4a10.15,10.15,0,0,0-1.83-2.34c-1.67-1.57-2.79-1.13-3.48-.65a5.17,5.17,0,0,0-1.25,1.23c3.7,7.28,3.23,18.15,1.28,23-.71,1.75-1.63,2.64-2.73,2.64h0c-1.65,0-2.44-2-2.7-2.66-2.68-6.82-1.74-17.38,1.47-23a11.33,11.33,0,0,0-1.82-2.27C57.87,12.56,56.74,13,56,13.43a6.39,6.39,0,0,0-1.87,2.17c3.88,8.61,3.25,21.56,1.44,26.05C55,43.18,54.17,44,53.16,44h0c-1.5,0-2.32-1.74-2.81-3-2.47-6.57-1.88-18.6,1.27-25.31A12.92,12.92,0,0,0,49,12.08c-1.5-1.41-2.52-1-3.24-.49a8,8,0,0,0-2.2,2.74c4.34,9.9,3.37,24.08,1.24,28.91-.67,1.53-1.54,2.31-2.56,2.31h0c-1.53,0-2.32-1.75-2.57-2.33C36.37,35.81,37.42,22,41,14.31a17.13,17.13,0,0,0-2.67-4c-1.89-2.09-3.16-1.69-4-1.21a8.34,8.34,0,0,0-2.69,3.37C37.17,24.12,35.59,41.19,33,46.24c-.66,1.25-1.45,1.86-2.36,1.8-1.4-.09-2-1.68-2.17-2.2-4-10.75-2.85-25.29.74-33.35A20.74,20.74,0,0,0,27,9.15c-1.85-2.34-3.59-3.1-5.14-2.27a6.51,6.51,0,0,0-2.28,2.37c5.46,12.51,3.93,36.59.65,40.88a2,2,0,0,1-2,.94c-1.08-.18-1.86-1.23-2.55-3.39C11.54,34.77,12.5,17.44,17,9.11c-1.15-2.31-3.14-5.47-5.2-4.67C6.36,6.55,1.76,29.73,9,52.75ZM18.2,12c-3.14,7.76-4.35,22.42-.34,35a7.12,7.12,0,0,0,.68,1.6c2-3,4.27-23.67-.34-36.56m12.29,3.42C27.91,23,27,35.43,30.58,45c.06.17.12.3.17.41a18.84,18.84,0,0,0,1.75-6.27c.84-5.63,1.06-15.64-2-23.74m11.78,1.9c-2.53,7.1-3.36,18.49-.48,25a4,4,0,0,0,.48.83c.37-.47,1.1-2,1.61-5.46.76-5.27.68-13.59-1.61-20.32M52.85,18.6c-2.07,6.13-2.52,15.79-.36,21.52a5.85,5.85,0,0,0,.66,1.35c.46-.71,1.2-2.9,1.48-7.08A42.89,42.89,0,0,0,52.85,18.6m9.94.53c-2.19,5.1-2.94,13.72-.62,19.62a4.27,4.27,0,0,0,.58,1.09c.43-.52,1.23-2.31,1.64-5.77a31.93,31.93,0,0,0-1.6-14.94m9.2,2c-1.77,4.28-2.51,10.93-.41,16.18a4.8,4.8,0,0,0,.4.82c.42-.68,1.08-2.56,1.31-5.92A29.15,29.15,0,0,0,72,21.13"/></g></g></svg>