<svg id="Layer_1" data-name="Layer 1" xmlns="http://www.w3.org/2000/svg" viewBox="0 0 14.62 74.87"><defs><style>.cls-1{fill:#eec860;}</style></defs><path class="cls-1" d="M8.57,13.6H6.05V1H8.57Z"/><path class="cls-1" d="M13.62,21V33.6H6.22V23.25H3.52V33.6H1V21H8.74V31.35H11.1V21Z"/><path class="cls-1" d="M3.56,41h8.37v2.25H6.08v3.21h5.33v2.25H6.08V53.6H3.56Z"/><path class="cls-1" d="M1.23,67.3c0-3.73,2.27-6.57,6.07-6.57s6.09,2.84,6.09,6.57-2.27,6.57-6.09,6.57S1.23,71,1.23,67.3Zm9.64,0C10.87,65,9.57,63,7.3,63S3.75,65,3.75,67.3s1.3,4.32,3.55,4.32S10.87,69.59,10.87,67.3Z"/></svg>