<?xml version="1.0" encoding="utf-8"?>
<!-- Generator: Adobe Illustrator 25.0.0, SVG Export Plug-In . SVG Version: 6.00 Build 0)  -->
<svg version="1.1" id="Layer_1" xmlns="http://www.w3.org/2000/svg" xmlns:xlink="http://www.w3.org/1999/xlink" x="0px" y="0px"
	 viewBox="0 0 99.9 55.5" style="enable-background:new 0 0 99.9 55.5;" xml:space="preserve">
<style type="text/css">
	.st0{fill:#EEC860;}
</style>
<g>
	<path class="st0" d="M4.5,35.4H1.5V20.1h3.1V35.4z"/>
	<path class="st0" d="M29.8,17v21.5H17.2V20.8h-4.6v17.7H8.3V17h13.2v17.7h4V17H29.8z"/>
	<path class="st0" d="M33.9,13h19.6v5.3H39.8v7.5h12.5V31H39.8v11.4h-5.9V13z"/>
	<path class="st0" d="M54.5,27.8c0-13.5,8.2-23.8,22-23.8c13.8,0,22,10.3,22,23.8c0,13.5-8.2,23.8-22,23.8
		C62.7,51.5,54.5,41.2,54.5,27.8z M89.4,27.8c0-8.3-4.7-15.6-12.9-15.6c-8.1,0-12.8,7.4-12.8,15.6c0,8.3,4.7,15.6,12.8,15.6
		C84.7,43.4,89.4,36,89.4,27.8z"/>
</g>
</svg>
