<svg id="Layer_1" data-name="Layer 1" xmlns="http://www.w3.org/2000/svg" viewBox="0 0 26.59 15.14"><defs><style>.cls-1{fill:#eec860;}</style></defs><path class="cls-1" d="M3.52,3.52v3H9.08V8.74H3.52v2.88h6.1v2.25H1V1.27H9.62V3.52Z"/><path class="cls-1" d="M16.21,10.24c0-2.34,1.35-4.09,1.35-5.48a1.46,1.46,0,0,0-1.64-1.51c-1,0-1.8.61-1.8,2.25s.78,3.08.78,4.7c0,2.09-1.3,3.67-4.16,3.67V11.62A1.56,1.56,0,0,0,12.38,10c0-1.08-.78-2.49-.78-4.54C11.6,2.33,13.31,1,16.12,1s4,1.42,4,3.35c0,2.09-1.35,3.38-1.35,5.42,0,1.24.5,2.12,1.66,2.12s1.8-.77,1.8-2.32-.87-3-.87-4.79c0-2.18,1.28-3.51,4.25-3.51V3.52c-1.06,0-1.73.47-1.73,1.46s.87,2.65.87,4.81c0,3-1.68,4.35-4.32,4.35C17.54,14.14,16.21,12.58,16.21,10.24Z"/></svg>