<?xml version="1.0" encoding="utf-8"?>
<!-- Generator: Adobe Illustrator 25.0.0, SVG Export Plug-In . SVG Version: 6.00 Build 0)  -->
<svg version="1.1" id="Layer_1" xmlns="http://www.w3.org/2000/svg" xmlns:xlink="http://www.w3.org/1999/xlink" x="0px" y="0px"
	 viewBox="0 0 1280 800" style="enable-background:new 0 0 1280 800;" xml:space="preserve">
<style type="text/css">
	.st0{fill:#EEC860;}
</style>
<path class="st0" d="M55.7,352.6c-6.6,4.1-9.9,6.3-16.4,10.6l10.1-89.4c6.4-4.2,9.6-6.3,16.2-10.4C62.3,293.1,59,322.8,55.7,352.6z"
	/>
<path class="st0" d="M114.2,234.3c18.4-10.1,36.9-19.9,55.7-29.1c-0.5,5.8-0.8,8.8-1.3,14.6c-13.2,6.5-26.2,13.2-39.2,20
	c-0.8,8.3-1.2,12.5-2.1,20.8c11.9-6.3,23.8-12.4,35.8-18.4l-1.3,14.6c-12,6-24,12.2-35.9,18.5c-1.1,10.6-2.1,21.2-3.1,31.9
	c-6.8,3.6-10.2,5.5-16.9,9.3C108.6,289,111.4,261.7,114.2,234.3z"/>
<path class="st0" d="M175.4,249.5c1.5-16.4,2.9-32.7,4.4-49.1c6.8-3.2,10.2-4.8,17.1-7.9c-1.4,16.2-2.8,32.4-4.2,48.6
	c-2.2,10.6,5.7,17.6,15.8,12.3c10.5-5.6,18.4-14.9,19.5-27.5l3.8-48.5c6.9-2.9,10.4-4.2,17.4-7c-1.3,16.3-2.5,32.5-3.7,48.8
	c-2,22.8-18,39.6-38.2,48.7C189.9,275.7,172.5,271.9,175.4,249.5z"/>
<path class="st0" d="M282.3,172.3c-8.6,3-17.2,6.2-25.7,9.4c0.4-5.8,0.7-8.7,1.1-14.5c22.9-8.6,46-16.5,69.4-23.7
	c-0.4,5.8-0.5,8.6-0.9,14.4c-8.8,2.7-17.5,5.4-26.2,8.3c-1.5,22.1-3,44.2-4.4,66.4c-7.2,2.4-10.8,3.6-17.9,6.1
	C279.2,216.6,280.8,194.5,282.3,172.3z"/>
<path class="st0" d="M332.8,189.4c1-16.2,1.9-32.3,2.9-48.5c7.1-2.1,10.7-3.1,17.9-5.1l-2.7,48.1c-1.7,11,6.4,18.4,17.2,14.9
	c11.2-3.6,19-12.1,19.6-24.4l2.4-48c7.2-1.7,10.8-2.6,18.1-4.2c-0.7,16.1-1.5,32.2-2.2,48.3c-0.3,22.2-18.6,37.2-38.5,42.6
	C348.5,218.3,330.8,211.5,332.8,189.4z"/>
<path class="st0" d="M424.6,118.8c13.2-2.7,26.4-5.1,39.7-7.3c14.5-3.3,31.5,3.4,30.7,20.4c-0.7,14.6-14.5,25.8-28.4,27.6l-1.2,0.2
	c10,9,19.9,17.9,29.8,26.9c-9.8,1.3-14.7,2-24.5,3.6c-9.9-9.4-19.8-18.8-29.7-28.1c-0.4,11.2-0.9,22.3-1.3,33.5
	c-7.4,1.4-11.1,2.1-18.4,3.6L424.6,118.8z M459.3,148.6c12.6-2.1,17.3-6.6,17.5-13.9c0.3-8.1-5.3-10.3-16.7-8.3
	c-7.1,1.2-10.7,1.8-17.9,3.2c-0.3,8.9-0.5,13.3-0.9,22.2C448.5,150.4,452.1,149.8,459.3,148.6L459.3,148.6z"/>
<path class="st0" d="M569.3,159.8c-14.6,1-29.2,2.3-43.8,3.7c-3.2,8.1-4.9,12.1-8.2,20.3c-7.7,0.9-11.6,1.3-19.2,2.4
	c11.6-27.9,23.2-55.9,34.7-83.8c10.5-1,21-1.9,31.5-2.7c10.5,26.1,21.2,52.1,31.9,78.1c-7.7,0.3-11.6,0.5-19.3,0.9
	C573.8,171.2,572.3,167.4,569.3,159.8z M531.5,148.7c10.8-1,21.5-2,32.3-2.8c-5.2-12.6-10.3-25.2-15.4-37.8
	C542.8,121.6,537.2,135.2,531.5,148.7L531.5,148.7z"/>
<path class="st0" d="M659.8,111.4c-9-0.2-18-0.2-27-0.2V97c24.2,0,48.3,0.6,72.4,1.9l0.2,14.3c-9-0.6-18.1-1-27.1-1.3l0.5,65.7
	c-7.5-0.3-11.2-0.4-18.7-0.5L659.8,111.4z"/>
<path class="st0" d="M715.9,99.6c13.4,1,26.8,2.2,40.1,3.6c16,1.5,31.2,12.1,32.2,29c0.9,14.6-15,21.2-27.2,20l-1.2-0.1
	c10.6,11.7,21.2,23.5,31.7,35.3c-9.8-1.4-14.7-2-24.6-3.1c-10.6-12.2-21.2-24.4-31.9-36.6c0.2,11.1,0.4,22.3,0.6,33.4
	c-7.5-0.7-11.2-0.9-18.7-1.5L715.9,99.6z M753,139.3c12.7,1.3,17.1-1.8,17-9.2c-0.2-8.1-5.9-11.8-17.4-13c-7.2-0.8-10.8-1.1-18-1.7
	c0.2,8.9,0.2,13.3,0.4,22.2C742.2,138.2,745.8,138.6,753,139.3L753,139.3z"/>
<path class="st0" d="M796.8,148.3c-1-24.6,19-39.3,42.5-34.5c25,5.1,44,25.3,45.7,51.1c1.6,25.3-19.7,36.8-42.4,32.6
	C818.6,193.1,797.9,173.6,796.8,148.3z M866.8,160.8c-1.2-14.3-12.6-29.6-26.9-32.7s-24.9,9.8-24.7,23c0.2,15.2,12.1,29.3,26.9,32
	C856,185.7,868,175.3,866.8,160.8L866.8,160.8z M862,112.2c-15.2-3.2-30.5-6.1-45.8-8.6c-0.1-4.3-0.2-6.4-0.4-10.7
	c15.3,2.6,30.6,5.4,45.8,8.6C861.7,105.8,861.8,107.9,862,112.2z"/>
<path class="st0" d="M967.3,172.6c1.5,17.1-15.4,22.4-29.1,17.5c-8.4-2.4-12.7-3.6-21.2-5.8l1.5,28.6c-7.3-1.9-10.9-2.9-18.2-4.6
	l-4.1-80.4c13.1,3.3,26.1,6.7,39,10.3C951.1,142.6,965.8,155.4,967.3,172.6z M949.5,167.1c-0.5-8.2-6.1-12.5-17.4-15.7
	c-6.9-1.9-10.3-2.9-17.2-4.7c0.5,9.2,0.7,13.9,1.2,23.1c6.9,1.8,10.4,2.8,17.2,4.7C945.8,178,950,175.3,949.5,167.1L949.5,167.1z"/>
<path class="st0" d="M1000.4,237.9c-7.2-2.5-10.8-3.7-17.9-6.1l-5.3-80.8c7.1,2.3,10.6,3.5,17.7,6
	C996.7,184,998.6,210.9,1000.4,237.9z"/>
<path class="st0" d="M1010.5,202.1c-2.2-24.4,17.3-35.1,38.7-26.1c16.8,7.1,33.4,22.6,36.8,41.3c-6.9-3.1-10.3-4.6-17.3-7.6
	c-2.7-8.8-10.6-15.4-18.3-19.1c-13.5-6.5-23.3,5.2-22.3,18c1.3,16.1,12.1,31.6,27,37.8c10.6,4.4,17.4,1.3,17.7-3.6
	c7,3,10.5,4.6,17.4,7.7c1.5,19.7-23.7,14-33.6,10.5C1032.8,252.5,1013,228.3,1010.5,202.1z"/>
<path class="st0" d="M1156.2,287.5c-13.2-7.2-26.6-14-40.1-20.5c-2.1,6.5-3.2,9.8-5.3,16.4c-7.2-3.4-10.7-5.1-17.9-8.4
	c7.8-22.3,15.5-44.7,23.2-67.2c9.7,4.8,19.3,9.7,28.8,14.8l37.9,98.4c-6.9-4-10.5-5.9-17.4-9.8
	C1161.6,301.7,1159.8,297,1156.2,287.5z M1120,254.9c9.9,5,19.8,10,29.6,15.2l-18.5-47.7C1127.4,233.3,1123.8,244.1,1120,254.9z"/>
<path class="st0" d="M1241.2,363.1c-6.5-4.3-9.8-6.4-16.4-10.6c-3.3-29.8-6.5-59.5-9.8-89.3c6.5,4.1,9.7,6.2,16.1,10.4
	C1234.5,303.5,1237.8,333.3,1241.2,363.1z"/>
<path class="st0" d="M40.5,524.6c-3.4-7.7-5.1-11.5-8.4-19.2c40.6,25.5,82.8,48.6,126.1,69.2l6.7,18.2
	C122.1,572.5,80.6,549.7,40.5,524.6z"/>
<path class="st0" d="M299.4,691.9c-8.5-29.9-17-59.8-25.5-89.7c-9.9,23.2-18.8,46.7-26.6,70.7c-14.3-5.6-28.5-11.6-42.6-17.8
	L169,553.8c8.1,3.6,16.2,7.1,24.4,10.5l30.9,91.8c7.3-23.8,15.6-47.1,25.1-70.1c15.6,5.5,31.3,10.7,47.1,15.7
	c8.7,32.6,17.4,65.2,26.1,97.8C313.3,696.6,308.6,695.1,299.4,691.9z"/>
<path class="st0" d="M423.9,709.1c1.2,6.8,1.9,10.2,3.1,17.1c-27.2-5.7-54.1-12.2-80.7-19.7c-8-32.4-16.1-64.8-24.1-97.2
	c28.9,8.1,58,15.1,87.4,21.2c1.2,6.8,1.9,10.2,3.1,17.1c-20.5-4.3-40.9-9-61.1-14.1l5.1,22.1c18.1,4.7,36.4,9,54.7,12.8
	c1.3,6.8,1.9,10.3,3.2,17.1c-18.1-3.7-36.1-7.9-53.9-12.6l5.2,22.8C385.1,700.6,404.4,705,423.9,709.1z"/>
<path class="st0" d="M456.8,639c10.3,1.7,15.5,2.4,25.9,3.8l9.8,77.8c11.9,1.6,23.9,3.1,35.8,4.3l1.7,16.8
	c-31.6-3.4-63-8.1-94.2-13.9l-2.9-17c11.8,2.3,23.6,4.4,35.4,6.2L456.8,639z"/>
<path class="st0" d="M536,648.9c10.4,1,15.6,1.3,26,2c0.8,13.1,1.7,26.2,2.5,39.2c13.7-12.5,27.4-24.8,41.3-37.1
	c11.5,0.3,23,0.5,34.5,0.5c-14.1,12-28.2,24-42.2,36.1l1.6,0.1c16.3,0.5,38.1,8.7,38.2,28.2c0.1,22-23.1,29.6-41.5,28.6
	c-17.6-0.8-35.1-2-52.7-3.4C541.2,711.7,538.6,680.3,536,648.9z M565.3,702.2c0.7,10.4,1,15.6,1.6,26.1c9.6,0.7,14.4,1,23.9,1.3
	c8.8,0.5,22.9-0.3,22.6-12.2s-14.6-13.5-23.7-13.8C579.9,703.1,575,702.8,565.3,702.2L565.3,702.2z"/>
<path class="st0" d="M712.4,649.3c27.8-2,61.4,10.1,57.6,43.6c-3.6,31.2-33.4,52.8-63.3,54.4c-27.9,1.5-58.5-15.6-57.6-46.9
	C650,666.9,682.9,651.4,712.4,649.3z M711.4,666.1c-18.5,1.2-36.6,13.9-37.2,33.9c-0.6,18.8,15.2,31.8,33.4,30.6
	c18.8-1.3,35.5-15.8,37.3-35C746.8,675.7,729.3,664.9,711.4,666.1L711.4,666.1z"/>
<path class="st0" d="M847.3,633c26.9-5.2,58.9,3.5,51.5,37.2c-7,31.9-36.9,56-67.8,62.2c-27.9,5.5-55.1-9.9-51.7-40.5
	C783,658.1,817.1,638.8,847.3,633z M844.5,650c-18.5,4.1-37,18.8-40.4,38.4c-3,17.7,12.7,30.3,29.6,26.9
	c19.3-3.8,36.3-20.2,40.4-39.6C878.1,657.1,861.5,646.3,844.5,650L844.5,650z"/>
<path class="st0" d="M950.1,611.5c10.2-2.8,15.2-4.3,25.3-7.3l-20.9,80.2c11.6-3.5,23.2-7.2,34.7-11.1l-5,17.6
	c-30.3,10.1-61,19-92,26.6c1.5-6.9,2.2-10.3,3.7-17.2c11.7-2.8,23.4-5.9,35-9.1C937.2,664.6,943.6,638,950.1,611.5z"/>
<path class="st0" d="M1070.6,569c12.6-5,46.7-15,36.7,11.3c-7.7,20.4-28.2,33.8-46,45.2c-8.1,4.9-12.2,7.3-20.3,12.1
	c-11.6,6.8-15.3,11.5-16.5,15.5c-2,6.4,2.9,9,16.4,3.6c10.6-4.3,21.7-11.2,26.4-22.2c9.3-3.9,13.9-5.9,23.1-10.1
	c-8.5,23.5-31.8,40.2-54,49.2c-12.2,5-43,10.2-34.9-13.6c6.3-18.5,24.7-29.6,40.5-39.4c8.2-4.8,12.4-7.2,20.6-12.1
	c7.8-4.4,18.1-10.1,21.3-18.9c3.5-9.5-8.3-7.3-18.9-3.1c-11.4,4.5-25.5,11.7-30.3,23.8c-9.7,3.6-14.6,5.3-24.4,8.7
	C1018.4,593.8,1047.8,578,1070.6,569z"/>
<path class="st0" d="M1115.2,592.9l6.7-18.2c43.4-20.6,85.5-43.7,126.1-69.2c-3.4,7.7-5.1,11.5-8.4,19.2
	C1199.5,549.7,1157.9,572.5,1115.2,592.9z"/>
<g>
	<path class="st0" d="M593.4,43.3c0-3.7-2.9-6.3-7.6-6.3h-11.1v21.6h10.1c4.9,0,7.4-2.3,7.4-5.5c0.1-1.9-0.9-3.6-2.5-4.5
		C592,47.9,593.5,45.7,593.4,43.3z M579.2,50h5.5c2.1,0,3.1,1,3.1,2.5s-1,2.6-3.1,2.6h-5.5V50z M588.9,43.5c0,2-1.6,2.9-4.1,2.9
		h-5.7v-5.9h5.7C587.4,40.6,588.9,41.5,588.9,43.5z"/>
	<path class="st0" d="M595.2,47.8c0,6.4,4,11.3,10.8,11.3s10.8-4.8,10.8-11.3s-4-11.3-10.8-11.3S595.2,41.5,595.2,47.8z M612.4,47.8
		c0,3.9-2.3,7.4-6.3,7.4s-6.3-3.6-6.3-7.4s2.3-7.4,6.3-7.4S612.4,43.9,612.4,47.8z"/>
	<path class="st0" d="M639.4,44.3V37H636v2.4c-1.8-1.9-4.4-3-7-2.9c-6.2,0-10.5,4.7-10.5,11.3c-0.4,5.8,4,10.8,9.8,11.2
		c0.4,0,0.9,0,1.3,0c6.6,0,9.2-4.4,9.3-7h-4.5c-0.3,1.5-1.8,3.1-4.9,3.1c-4.1,0-6.6-3.1-6.6-7.5s2.2-7.3,6.5-7.3
		c2.7-0.2,5.2,1.4,6.2,4h-7.5v3.6h7.5L639.4,44.3z"/>
	<path class="st0" d="M641.4,47.8c0,6.4,4,11.3,10.8,11.3c6.8,0,10.8-4.8,10.8-11.3s-4-11.3-10.8-11.3S641.4,41.5,641.4,47.8z
		 M658.6,47.8c0,3.9-2.3,7.4-6.3,7.4s-6.3-3.6-6.3-7.4s2.3-7.4,6.3-7.4S658.6,43.9,658.6,47.8z"/>
	<path class="st0" d="M670.3,54.8h-6.6v3.9h17.6v-3.9h-6.5V37h-4.5V54.8z"/>
	<path class="st0" d="M698.8,42.3h-10.6l-1.8-5.3h-4.7l7.9,21.6h7.7l7.9-21.6h-4.6L698.8,42.3z M689.7,46.1h7.8l-3.9,10.7
		L689.7,46.1z M694,63.9h5.3l-3.9-3.6h-4.6L694,63.9z"/>
</g>
</svg>
