<?xml version="1.0" standalone="no"?>
<svg xmlns:xlink="http://www.w3.org/1999/xlink" id="wave" style="transform:rotate(0deg); transition: 0.3s" viewBox="0 0 1440 490" version="1.1" xmlns="http://www.w3.org/2000/svg"><defs><linearGradient id="sw-gradient-0" x1="0" x2="0" y1="1" y2="0"><stop stop-color="rgba(0, 43, 160, 1)" offset="0%"/><stop stop-color="rgba(182, 0, 104, 1)" offset="100%"/></linearGradient></defs><path style="transform:translate(0, 0px); opacity:1" fill="url(#sw-gradient-0)" d="M0,343L26.7,343C53.3,343,107,343,160,326.7C213.3,310,267,278,320,253.2C373.3,229,427,212,480,171.5C533.3,131,587,65,640,32.7C693.3,0,747,0,800,40.8C853.3,82,907,163,960,196C1013.3,229,1067,212,1120,228.7C1173.3,245,1227,294,1280,294C1333.3,294,1387,245,1440,228.7C1493.3,212,1547,229,1600,212.3C1653.3,196,1707,147,1760,155.2C1813.3,163,1867,229,1920,212.3C1973.3,196,2027,98,2080,106.2C2133.3,114,2187,229,2240,261.3C2293.3,294,2347,245,2400,261.3C2453.3,278,2507,359,2560,375.7C2613.3,392,2667,343,2720,269.5C2773.3,196,2827,98,2880,57.2C2933.3,16,2987,33,3040,73.5C3093.3,114,3147,180,3200,228.7C3253.3,278,3307,310,3360,318.5C3413.3,327,3467,310,3520,310.3C3573.3,310,3627,327,3680,326.7C3733.3,327,3787,310,3813,302.2L3840,294L3840,490L3813.3,490C3786.7,490,3733,490,3680,490C3626.7,490,3573,490,3520,490C3466.7,490,3413,490,3360,490C3306.7,490,3253,490,3200,490C3146.7,490,3093,490,3040,490C2986.7,490,2933,490,2880,490C2826.7,490,2773,490,2720,490C2666.7,490,2613,490,2560,490C2506.7,490,2453,490,2400,490C2346.7,490,2293,490,2240,490C2186.7,490,2133,490,2080,490C2026.7,490,1973,490,1920,490C1866.7,490,1813,490,1760,490C1706.7,490,1653,490,1600,490C1546.7,490,1493,490,1440,490C1386.7,490,1333,490,1280,490C1226.7,490,1173,490,1120,490C1066.7,490,1013,490,960,490C906.7,490,853,490,800,490C746.7,490,693,490,640,490C586.7,490,533,490,480,490C426.7,490,373,490,320,490C266.7,490,213,490,160,490C106.7,490,53,490,27,490L0,490Z"/><defs><linearGradient id="sw-gradient-1" x1="0" x2="0" y1="1" y2="0"><stop stop-color="rgba(182, 0, 104, 1)" offset="0%"/><stop stop-color="rgba(240, 45, 39, 1)" offset="100%"/></linearGradient></defs><path style="transform:translate(0, 50px); opacity:0.9" fill="url(#sw-gradient-1)" d="M0,147L26.7,147C53.3,147,107,147,160,122.5C213.3,98,267,49,320,98C373.3,147,427,294,480,310.3C533.3,327,587,212,640,204.2C693.3,196,747,294,800,318.5C853.3,343,907,294,960,245C1013.3,196,1067,147,1120,147C1173.3,147,1227,196,1280,228.7C1333.3,261,1387,278,1440,277.7C1493.3,278,1547,261,1600,228.7C1653.3,196,1707,147,1760,138.8C1813.3,131,1867,163,1920,147C1973.3,131,2027,65,2080,65.3C2133.3,65,2187,131,2240,171.5C2293.3,212,2347,229,2400,269.5C2453.3,310,2507,376,2560,351.2C2613.3,327,2667,212,2720,147C2773.3,82,2827,65,2880,65.3C2933.3,65,2987,82,3040,106.2C3093.3,131,3147,163,3200,171.5C3253.3,180,3307,163,3360,179.7C3413.3,196,3467,245,3520,245C3573.3,245,3627,196,3680,179.7C3733.3,163,3787,180,3813,187.8L3840,196L3840,490L3813.3,490C3786.7,490,3733,490,3680,490C3626.7,490,3573,490,3520,490C3466.7,490,3413,490,3360,490C3306.7,490,3253,490,3200,490C3146.7,490,3093,490,3040,490C2986.7,490,2933,490,2880,490C2826.7,490,2773,490,2720,490C2666.7,490,2613,490,2560,490C2506.7,490,2453,490,2400,490C2346.7,490,2293,490,2240,490C2186.7,490,2133,490,2080,490C2026.7,490,1973,490,1920,490C1866.7,490,1813,490,1760,490C1706.7,490,1653,490,1600,490C1546.7,490,1493,490,1440,490C1386.7,490,1333,490,1280,490C1226.7,490,1173,490,1120,490C1066.7,490,1013,490,960,490C906.7,490,853,490,800,490C746.7,490,693,490,640,490C586.7,490,533,490,480,490C426.7,490,373,490,320,490C266.7,490,213,490,160,490C106.7,490,53,490,27,490L0,490Z"/><defs><linearGradient id="sw-gradient-2" x1="0" x2="0" y1="1" y2="0"><stop stop-color="rgba(0, 43, 160, 1)" offset="0%"/><stop stop-color="rgba(240, 45, 39, 1)" offset="100%"/></linearGradient></defs><path style="transform:translate(0, 100px); opacity:0.8" fill="url(#sw-gradient-2)" d="M0,392L26.7,359.3C53.3,327,107,261,160,228.7C213.3,196,267,196,320,212.3C373.3,229,427,261,480,253.2C533.3,245,587,196,640,212.3C693.3,229,747,310,800,334.8C853.3,359,907,327,960,277.7C1013.3,229,1067,163,1120,187.8C1173.3,212,1227,327,1280,375.7C1333.3,425,1387,408,1440,359.3C1493.3,310,1547,229,1600,163.3C1653.3,98,1707,49,1760,89.8C1813.3,131,1867,261,1920,261.3C1973.3,261,2027,131,2080,138.8C2133.3,147,2187,294,2240,310.3C2293.3,327,2347,212,2400,212.3C2453.3,212,2507,327,2560,383.8C2613.3,441,2667,441,2720,367.5C2773.3,294,2827,147,2880,114.3C2933.3,82,2987,163,3040,171.5C3093.3,180,3147,114,3200,147C3253.3,180,3307,310,3360,351.2C3413.3,392,3467,343,3520,310.3C3573.3,278,3627,261,3680,253.2C3733.3,245,3787,245,3813,245L3840,245L3840,490L3813.3,490C3786.7,490,3733,490,3680,490C3626.7,490,3573,490,3520,490C3466.7,490,3413,490,3360,490C3306.7,490,3253,490,3200,490C3146.7,490,3093,490,3040,490C2986.7,490,2933,490,2880,490C2826.7,490,2773,490,2720,490C2666.7,490,2613,490,2560,490C2506.7,490,2453,490,2400,490C2346.7,490,2293,490,2240,490C2186.7,490,2133,490,2080,490C2026.7,490,1973,490,1920,490C1866.7,490,1813,490,1760,490C1706.7,490,1653,490,1600,490C1546.7,490,1493,490,1440,490C1386.7,490,1333,490,1280,490C1226.7,490,1173,490,1120,490C1066.7,490,1013,490,960,490C906.7,490,853,490,800,490C746.7,490,693,490,640,490C586.7,490,533,490,480,490C426.7,490,373,490,320,490C266.7,490,213,490,160,490C106.7,490,53,490,27,490L0,490Z"/><defs><linearGradient id="sw-gradient-3" x1="0" x2="0" y1="1" y2="0"><stop stop-color="rgba(0, 0, 50, 1)" offset="0%"/><stop stop-color="rgba(178, 255, 0, 1)" offset="100%"/></linearGradient></defs><path style="transform:translate(0, 150px); opacity:0.7" fill="url(#sw-gradient-3)" d="M0,343L26.7,351.2C53.3,359,107,376,160,334.8C213.3,294,267,196,320,204.2C373.3,212,427,327,480,383.8C533.3,441,587,441,640,400.2C693.3,359,747,278,800,212.3C853.3,147,907,98,960,114.3C1013.3,131,1067,212,1120,236.8C1173.3,261,1227,229,1280,253.2C1333.3,278,1387,359,1440,383.8C1493.3,408,1547,376,1600,334.8C1653.3,294,1707,245,1760,261.3C1813.3,278,1867,359,1920,367.5C1973.3,376,2027,310,2080,310.3C2133.3,310,2187,376,2240,351.2C2293.3,327,2347,212,2400,163.3C2453.3,114,2507,131,2560,163.3C2613.3,196,2667,245,2720,261.3C2773.3,278,2827,261,2880,228.7C2933.3,196,2987,147,3040,179.7C3093.3,212,3147,327,3200,367.5C3253.3,408,3307,376,3360,359.3C3413.3,343,3467,343,3520,318.5C3573.3,294,3627,245,3680,212.3C3733.3,180,3787,163,3813,155.2L3840,147L3840,490L3813.3,490C3786.7,490,3733,490,3680,490C3626.7,490,3573,490,3520,490C3466.7,490,3413,490,3360,490C3306.7,490,3253,490,3200,490C3146.7,490,3093,490,3040,490C2986.7,490,2933,490,2880,490C2826.7,490,2773,490,2720,490C2666.7,490,2613,490,2560,490C2506.7,490,2453,490,2400,490C2346.7,490,2293,490,2240,490C2186.7,490,2133,490,2080,490C2026.7,490,1973,490,1920,490C1866.7,490,1813,490,1760,490C1706.7,490,1653,490,1600,490C1546.7,490,1493,490,1440,490C1386.7,490,1333,490,1280,490C1226.7,490,1173,490,1120,490C1066.7,490,1013,490,960,490C906.7,490,853,490,800,490C746.7,490,693,490,640,490C586.7,490,533,490,480,490C426.7,490,373,490,320,490C266.7,490,213,490,160,490C106.7,490,53,490,27,490L0,490Z"/></svg>