<svg id="Layer_1" data-name="Layer 1" xmlns="http://www.w3.org/2000/svg" xmlns:xlink="http://www.w3.org/1999/xlink" viewBox="0 0 1280 800"><defs><style>.cls-1{fill:url(#linear-gradient);}.cls-2{fill:url(#linear-gradient-2);}.cls-3{fill:#d1d3d4;}.cls-4{fill:#eec860;}</style><linearGradient id="linear-gradient" y1="400" x2="640" y2="400" gradientUnits="userSpaceOnUse"><stop offset="0" stop-color="#fff"/><stop offset="1"/></linearGradient><linearGradient id="linear-gradient-2" x1="4523" y1="-112" x2="5163" y2="-112" gradientTransform="translate(-3886 512)" xlink:href="#linear-gradient"/></defs><rect class="cls-1" width="640" height="800"/><rect class="cls-2" x="637" width="640" height="800" transform="translate(1914 800) rotate(180)"/><circle class="cls-3" cx="632" cy="417" r="53.09"/><path class="cls-4" d="M585,356.46h2.52v-4.78l4.45,4.78h3.24l-4.88-4.95,5.4-7.13h-3.1l-4,5.44-1.15-1.19v-4.25H585Z"/><path class="cls-4" d="M599.62,344.38H597.1v12.08h2.52Z"/><path class="cls-4" d="M606.73,347.87c0,2.24,1.35,3.92,1.35,5.24,0,.94-.67,1.45-1.64,1.45s-1.8-.58-1.8-2.15.77-3,.77-4.51c0-2-1.29-3.52-4.16-3.52v2.16a1.52,1.52,0,0,1,1.64,1.59c0,1-.77,2.38-.77,4.35,0,3,1.71,4.24,4.52,4.24s4-1.36,4-3.21-1.35-3.24-1.35-5.19c0-1.2.5-2,1.65-2s1.8.74,1.8,2.23-.86,2.86-.86,4.59c0,2.09,1.28,3.36,4.25,3.36v-2.15c-1.06,0-1.73-.45-1.73-1.4s.86-2.54.86-4.61c0-2.89-1.67-4.18-4.32-4.18C608.06,344.12,606.73,345.62,606.73,347.87Z"/><path class="cls-4" d="M616.91,347.9h2.52c0-1.24,1.45-1.67,2.69-1.67s2.41.34,2.41,1.51c0,.8-.61,1.08-1.84,1.4l-2,.56c-2.72.74-3.41,2-3.41,3.36,0,2.42,2.15,3.66,4.81,3.66,2.34,0,4.79-1,4.79-3.69h-2.52c0,1-1,1.59-2.39,1.59s-2.17-.59-2.17-1.37c0-.48.27-.95,1.43-1.26l2-.55c2.9-.79,3.82-1.88,3.82-3.56,0-2.64-2.25-3.76-4.93-3.76C619,344.12,616.91,345.64,616.91,347.9Z"/><path class="cls-4" d="M639.83,344.38h-2.52v4.95h-5.89v-4.95H628.9v12.08h2.52v-5h5.89v5h2.52Z"/><path class="cls-4" d="M650.77,347.31h-5.94l-1-2.93h-2.61l4.46,12.08H650l4.47-12.08h-2.61Zm-5.16,2.16H650l-2.2,5.91Z"/><path class="cls-4" d="M655,347.9h2.52c0-1.24,1.44-1.67,2.68-1.67s2.41.34,2.41,1.51c0,.8-.61,1.08-1.83,1.4l-2,.56c-2.72.74-3.4,2-3.4,3.36,0,2.42,2.14,3.66,4.81,3.66,2.34,0,4.78-1,4.78-3.69h-2.52c0,1-1,1.59-2.39,1.59s-2.16-.59-2.16-1.37c0-.48.27-.95,1.42-1.26l2-.55c2.9-.79,3.81-1.88,3.81-3.56,0-2.64-2.25-3.76-4.93-3.76C657,344.12,655,345.64,655,347.9Z"/><path class="cls-4" d="M675.33,347.31h-6l-1-2.93h-2.61l4.46,12.08h4.33L679,344.38h-2.61Zm-5.17,2.16h4.39l-2.19,5.91Z"/><circle class="cls-3" cx="450.09" cy="387" r="53.09"/><circle class="cls-3" cx="824.91" cy="389" r="53.09"/><path class="cls-4" d="M782.47,455.48c0-2.06-1.65-3.52-4.28-3.52H772V464h5.71c2.77,0,4.17-1.27,4.17-3.05a2.71,2.71,0,0,0-1.42-2.54A3,3,0,0,0,782.47,455.48Zm-8,3.75h3.1c1.17,0,1.74.57,1.74,1.39s-.57,1.44-1.74,1.44h-3.1ZM780,455.6c0,1.14-.88,1.64-2.3,1.64h-3.17v-3.3h3.2C779.11,453.94,780,454.48,780,455.6Z"/><path class="cls-4" d="M786.77,461.88V459h5.57v-2.16h-5.57v-2.76h6.11V452h-8.63V464h8.63v-2.16Z"/><path class="cls-4" d="M807.53,464V452h-7.4v9.92h-2.7V452h-2.52V464h7.74v-9.92H805V464Z"/><path class="cls-4" d="M821.1,456V452h-1.89v1.34a5.14,5.14,0,0,0-3.94-1.6c-3.5,0-5.91,2.62-5.91,6.32a5.91,5.91,0,0,0,6.25,6.28c3.73,0,5.2-2.45,5.26-3.92h-2.52c-.17.81-1.05,1.76-2.78,1.76-2.32,0-3.69-1.72-3.69-4.19s1.23-4.09,3.66-4.09a3.42,3.42,0,0,1,3.47,2.21H814.8v2H819Z"/><path class="cls-4" d="M831.4,454.89h-5.95l-1-2.93H821.8L826.27,464h4.32L835.05,452h-2.61Zm-5.17,2.16h4.39L828.43,463Z"/><path class="cls-4" d="M836.4,464h2.52v-9.92h5.38V452h-7.9Z"/><path class="cls-4" d="M845.52,456.77V464H848v-7.21c0-1.85.67-3,2.54-3s2.58,1.12,2.58,3V464h2.52v-7.27c0-3.47-2.16-5.07-5.1-5.07S845.52,453.3,845.52,456.77Z"/><path class="cls-4" d="M858,464h5.51c2.82,0,4.34-1.5,4.34-3.8a3.53,3.53,0,0,0-3.8-3.53h-.16l4.19-4.75h-3.33l-4.23,5v-5H858Zm5-5.5c1.73,0,2.36.56,2.36,1.67s-.77,1.67-2.36,1.67h-2.46v-3.34Z"/><path class="cls-4" d="M869.45,456.77V464H872v-7.21c0-1.85.66-3,2.53-3s2.58,1.12,2.58,3V464h2.52v-7.27c0-3.47-2.16-5.07-5.1-5.07S869.45,453.3,869.45,456.77Z"/><path class="cls-4" d="M6.16,521.71C2.6,513.58.81,509.52-2.75,501.4a1307,1307,0,0,0,133.3,73.21c2.83,7.72,4.24,11.58,7.07,19.29A1297.78,1297.78,0,0,1,6.16,521.71Z"/><path class="cls-4" d="M279.88,698.68q-13.49-47.4-27-94.82c-10.48,24.59-19.84,49.38-28.09,74.8-15.15-5.93-30.15-12.26-45-18.84L142,552.6q12.86,5.71,25.85,11.12l32.71,97.11c7.71-25.21,16.54-49.81,26.51-74.21q24.76,8.71,49.79,16.59,13.77,51.69,27.56,103.38C294.58,703.54,289.67,702,279.88,698.68Z"/><path class="cls-4" d="M411.49,716.71l3.3,18q-43.05-9-85.34-20.74-12.75-51.39-25.51-102.77,45.82,12.79,92.35,22.44c1.33,7.22,2,10.83,3.31,18Q367.1,645,335,636.81c2.15,9.35,3.22,14,5.37,23.36q28.72,7.51,57.83,13.51c1.36,7.23,2,10.84,3.38,18.07q-28.67-6-57-13.32c2.21,9.64,3.32,14.45,5.53,24.09Q380.64,710.31,411.49,716.71Z"/><path class="cls-4" d="M446.32,642.74c10.94,1.74,16.41,2.55,27.38,4q5.18,41.1,10.36,82.2,18.9,2.58,37.88,4.54c.68,7.12,1,10.68,1.71,17.8q-50.1-5.43-99.54-14.73c-1.26-7.2-1.9-10.81-3.16-18q18.66,3.61,37.45,6.62Q452.36,684,446.32,642.74Z"/><path class="cls-4" d="M530,653.16c11,1,16.52,1.42,27.54,2.16l2.61,41.47q21.69-19.78,43.68-39.23,18.24.53,36.48.53-22.37,19-44.58,38.15l1.72.07c17.22.47,40.27,9.23,40.41,29.81.16,23.3-24.36,31.29-43.85,30.26q-27.88-1.29-55.66-3.63Q534.17,702.95,530,653.16Zm31,56.28c.69,11,1,16.53,1.73,27.55,10.11.68,15.18,1,25.3,1.42,9.29.53,24.21-.34,23.9-12.91s-15.41-14.29-25.07-14.61C576.45,710.42,571.28,710.13,560.94,709.44Z"/><path class="cls-4" d="M716.48,653.58c29.38-2.11,64.94,10.64,60.89,46.11-3.76,33-35.32,55.81-66.93,57.55-29.54,1.63-61.8-16.44-60.87-49.58C650.56,672.19,685.34,655.83,716.48,653.58Zm-1,17.75c-19.6,1.32-38.69,14.69-39.33,35.82-.6,19.89,16.12,33.64,35.35,32.34,19.9-1.34,37.5-16.73,39.46-37C753,681.5,734.49,670.06,715.45,671.33Z"/><path class="cls-4" d="M859.18,636.3c28.43-5.5,62.26,3.72,54.39,39.32-7.45,33.68-39,59.21-71.71,65.7-29.47,5.86-58.24-10.5-54.69-42.81C791.08,662.9,827.26,642.47,859.18,636.3Zm-3,18c-19.57,4.33-39.14,19.85-42.68,40.62-3.19,18.76,13.4,32,31.29,28.44,20.37-4.07,38.35-21.37,42.7-41.84C891.72,661.74,874.13,650.32,856.21,654.28Z"/><path class="cls-4" d="M967.81,613.56c10.73-3,16.08-4.52,26.76-7.74l-22.11,84.76q18.43-5.55,36.68-11.73c-2.14,7.44-3.21,11.16-5.34,18.6q-48.13,16-97.29,28.15c1.56-7.28,2.34-10.91,3.91-18.19q18.55-4.47,37-9.57Q957.6,655.71,967.81,613.56Z"/><path class="cls-4" d="M1095.22,568.65c13.3-5.3,49.35-15.89,38.82,11.9-8.2,21.63-29.86,35.78-48.69,47.75-8.6,5.2-12.89,7.76-21.48,12.79-12.25,7.14-16.17,12.13-17.48,16.34-2.1,6.75,3.11,9.49,17.3,3.77,11.23-4.53,23-11.8,27.88-23.47,9.8-4.14,14.68-6.27,24.41-10.64-8.94,24.8-33.63,42.53-57.07,52.07C1046,684.39,1013.42,690,1022,664.77c6.67-19.58,26.1-31.28,42.85-41.64,8.71-5,13.07-7.59,21.79-12.8,8.28-4.65,19.17-10.65,22.56-19.94,3.67-10.07-8.78-7.77-20-3.29-12,4.79-27,12.33-32,25.14-10.27,3.8-15.43,5.65-25.76,9.21C1040,594.86,1071.14,578.24,1095.22,568.65Z"/><path class="cls-4" d="M1142.38,593.9c2.83-7.71,4.24-11.57,7.07-19.29a1308.1,1308.1,0,0,0,133.3-73.21c-3.56,8.12-5.35,12.18-8.91,20.31A1297.78,1297.78,0,0,1,1142.38,593.9Z"/><path class="cls-4" d="M25.62,342.32c-6.92,4.37-10.37,6.59-17.23,11.1q5.31-47,10.63-94C25.76,255,29.15,252.77,36,248.47Q30.79,295.39,25.62,342.32Z"/><path class="cls-4" d="M87.11,218q28.92-16,58.54-30.62c-.55,6.13-.83,9.2-1.39,15.33q-20.76,10.23-41.18,21.07c-.86,8.76-1.29,13.14-2.16,21.91q18.69-9.94,37.63-19.35l-1.4,15.33q-19,9.45-37.74,19.4-1.65,16.74-3.29,33.47c-7.13,3.84-10.68,5.79-17.76,9.76Q82.73,261.15,87.11,218Z"/><path class="cls-4" d="M151.37,234q2.31-25.78,4.61-51.56c7.16-3.4,10.75-5.06,18-8.32q-2.2,25.56-4.4,51.12c-2.35,11.17,6,18.53,16.62,12.89,11-5.83,19.36-15.63,20.47-28.88l4-51c7.29-3,10.94-4.46,18.27-7.32q-2,25.63-3.91,51.27c-2.14,24-18.95,41.66-40.15,51.17C166.69,261.54,148.38,257.54,151.37,234Z"/><path class="cls-4" d="M263.76,152.83q-13.59,4.77-27.06,9.91c.46-6.09.69-9.13,1.14-15.21Q274,134,310.78,122.59c-.37,6.06-.56,9.08-.93,15.14q-13.8,4.19-27.5,8.75-2.33,34.88-4.64,69.76c-7.54,2.51-11.31,3.8-18.82,6.44Q261.32,187.76,263.76,152.83Z"/><path class="cls-4" d="M316.82,170.84q1.51-25.49,3-51c7.5-2.21,11.25-3.28,18.77-5.36l-2.85,50.55c-1.8,11.53,6.71,19.35,18.06,15.67,11.77-3.81,20-12.67,20.58-25.62l2.49-50.46c7.57-1.81,11.37-2.68,19-4.36q-1.15,25.39-2.32,50.78c-.33,23.36-19.56,39.12-40.51,44.77C333.37,201.14,314.72,194,316.82,170.84Z"/><path class="cls-4" d="M413.39,96.57q20.82-4.16,41.74-7.72c15.25-3.52,33.09,3.62,32.26,21.5-.72,15.38-15.25,27.15-29.9,29l-1.24.2q15.69,14.11,31.3,28.29c-10.31,1.38-15.47,2.13-25.76,3.75Q446.2,156.74,430.54,142q-.68,17.58-1.37,35.17c-7.76,1.45-11.63,2.21-19.37,3.79Q411.6,138.76,413.39,96.57Zm36.41,31.35C463,125.68,468,121,468.23,113.34c.27-8.54-5.54-10.81-17.6-8.77-7.51,1.27-11.27,1.93-18.76,3.33-.36,9.35-.55,14-.91,23.37C438.49,129.87,442.26,129.2,449.8,127.92Z"/><path class="cls-4" d="M565.44,139.71q-23.06,1.62-46,3.93c-3.41,8.51-5.12,12.77-8.56,21.31-8.1.92-12.15,1.41-20.24,2.47q18.3-44,36.43-88.11,16.53-1.57,33.07-2.82,16.62,41.12,33.51,82.13c-8.14.33-12.2.53-20.34,1C570.13,151.64,568.56,147.66,565.44,139.71ZM525.72,128q17-1.62,33.94-2.9-8.14-19.86-16.23-39.75Q534.6,106.68,525.72,128Z"/><path class="cls-4" d="M660.58,88.86q-14.21-.28-28.41-.16l0-15c25.42,0,50.74.64,76.12,2l.19,15q-14.25-.88-28.52-1.37l.51,69c-7.85-.28-11.78-.39-19.64-.53Z"/><path class="cls-4" d="M719.48,76.46q21.1,1.59,42.16,3.76c16.85,1.61,32.79,12.76,33.88,30.52.94,15.37-15.73,22.29-28.55,21l-1.25-.14q16.72,18.48,33.29,37.11c-10.31-1.44-15.47-2.1-25.81-3.3Q756.51,146.16,739.69,127q.33,17.54.65,35.08c-7.84-.69-11.76-1-19.6-1.55Zm39,41.66c13.31,1.39,18-1.92,17.85-9.62-.21-8.53-6.22-12.42-18.36-13.69-7.56-.79-11.35-1.15-18.92-1.81.17,9.32.26,14,.43,23.3C747.1,117,750.9,117.33,758.49,118.12Z"/><path class="cls-4" d="M804.53,127.59c-1.11-25.89,20-41.27,44.72-36.22,26.3,5.37,46.28,26.57,48,53.67,1.71,26.6-20.75,38.64-44.57,34.27C827.49,174.67,805.68,154.16,804.53,127.59Zm73.6,13.2c-1.23-15-13.25-31.15-28.29-34.36s-26.13,10.24-26,24.15c.16,15.95,12.69,30.84,28.25,33.67C866.75,166.91,879.39,156,878.13,140.79Zm-5.08-51.13c-16-3.39-32.07-6.37-48.19-9.07-.15-4.47-.23-6.71-.39-11.19,16.09,2.69,32.13,5.66,48.09,9C872.75,82.93,872.85,85.17,873.05,89.66Z"/><path class="cls-4" d="M983.72,153.11c1.54,17.94-16.18,23.59-30.6,18.38-8.88-2.53-13.34-3.75-22.26-6.1l1.62,30.1c-7.66-2-11.5-3-19.18-4.87L909,106.09q20.55,5.13,40.92,10.83C966.67,121.59,982.18,135.11,983.72,153.11Zm-18.64-5.73c-.52-8.6-6.44-13.15-18.28-16.48-7.21-2-10.82-3-18.06-4.91.52,9.72.78,14.58,1.31,24.29,7.27,1.92,10.9,2.9,18.14,4.94C961.17,158.86,965.6,156,965.08,147.38Z"/><path class="cls-4" d="M1018.57,221.79c-7.52-2.63-11.29-3.91-18.84-6.4l-5.61-84.91c7.44,2.45,11.15,3.71,18.55,6.29Q1015.61,179.28,1018.57,221.79Z"/><path class="cls-4" d="M1029.18,184.11c-2.37-25.66,18.22-36.93,40.66-27.4,17.62,7.48,35.07,23.79,38.73,43.45-7.24-3.28-10.87-4.88-18.15-8-2.86-9.2-11.12-16.23-19.24-20.13-14.19-6.82-24.53,5.49-23.47,18.9,1.35,16.95,12.67,33.21,28.4,39.74,11.15,4.64,18.25,1.34,18.58-3.81,7.32,3.17,11,4.79,18.25,8.1,1.59,20.68-24.89,14.76-35.35,11.07C1052.59,237.15,1031.73,211.69,1029.18,184.11Z"/><path class="cls-4" d="M1182.34,273.9q-20.85-11.26-42.19-21.6c-2.23,6.88-3.36,10.32-5.62,17.22-7.52-3.59-11.29-5.35-18.86-8.79Q1128,225.5,1140,190.13q15.25,7.6,30.32,15.52,19.92,51.72,39.83,103.43c-7.3-4.17-11-6.22-18.33-10.26C1188,288.84,1186.1,283.85,1182.34,273.9Zm-38.07-34.23q15.64,7.82,31.11,15.93l-19.49-50.1Q1150.15,222.62,1144.27,239.67Z"/><path class="cls-4" d="M1271.61,353.42c-6.86-4.51-10.3-6.73-17.23-11.1q-5.16-46.93-10.33-93.85c6.8,4.3,10.19,6.48,16.93,10.91Q1266.3,306.41,1271.61,353.42Z"/><path class="cls-4" d="M422.61,452.44c0-2.07-1.66-3.55-4.29-3.55h-6.23v12.18h5.71c2.77,0,4.18-1.29,4.18-3.08a2.75,2.75,0,0,0-1.43-2.56A3,3,0,0,0,422.61,452.44Zm-8,3.77h3.1c1.17,0,1.75.58,1.75,1.41s-.58,1.45-1.75,1.45h-3.1Zm5.48-3.65c0,1.15-.89,1.65-2.31,1.65h-3.17v-3.32h3.21C419.24,450.89,420.09,451.43,420.09,452.56Z"/><path class="cls-4" d="M423.67,455c0,3.6,2.26,6.35,6.06,6.35s6.09-2.75,6.09-6.35-2.27-6.35-6.09-6.35S423.67,451.38,423.67,455Zm9.63,0c0,2.21-1.3,4.17-3.57,4.17s-3.54-2-3.54-4.17,1.29-4.18,3.54-4.18S433.3,452.77,433.3,455Z"/><path class="cls-4" d="M448.49,453v-4.09H446.6v1.36a5.11,5.11,0,0,0-3.94-1.62c-3.5,0-5.91,2.64-5.91,6.37a5.94,5.94,0,0,0,6.25,6.33c3.73,0,5.2-2.47,5.26-3.95h-2.52c-.17.82-1.05,1.77-2.78,1.77-2.32,0-3.69-1.74-3.69-4.22s1.23-4.13,3.66-4.13A3.42,3.42,0,0,1,446.4,453h-4.21v2h4.23Z"/><path class="cls-4" d="M449.68,455c0,3.6,2.26,6.35,6.06,6.35s6.09-2.75,6.09-6.35-2.27-6.35-6.09-6.35S449.68,451.38,449.68,455Zm9.63,0c0,2.21-1.3,4.17-3.57,4.17s-3.54-2-3.54-4.17,1.29-4.18,3.54-4.18S459.31,452.77,459.31,455Z"/><path class="cls-4" d="M465.9,458.89h-3.7v2.18h9.92v-2.18h-3.7v-10H465.9Z"/><path class="cls-4" d="M482,451.85H476l-1-3h-2.61l4.47,12.18h4.32l4.47-12.18H483ZM476.8,454h4.4l-2.2,6Zm2.43,10h3l-2.18-2h-2.59Z"/><path class="cls-4" d="M1248.45,383v3H1254v2.25h-5.56v2.88h6.1v2.25h-8.62v-12.6h8.62V383Z"/><path class="cls-4" d="M1261.14,389.74c0-2.34,1.35-4.08,1.35-5.47a1.47,1.47,0,0,0-1.64-1.51c-1,0-1.8.61-1.8,2.25s.78,3.08.78,4.7c0,2.09-1.3,3.67-4.16,3.67v-2.25a1.55,1.55,0,0,0,1.63-1.66c0-1.08-.77-2.48-.77-4.53,0-3.1,1.71-4.43,4.52-4.43s4,1.42,4,3.35-1.35,3.38-1.35,5.41c0,1.25.5,2.13,1.65,2.13s1.81-.77,1.81-2.32-.87-3-.87-4.79c0-2.18,1.28-3.51,4.25-3.51V383c-1.06,0-1.73.47-1.73,1.46s.87,2.64.87,4.8c0,3-1.68,4.36-4.33,4.36C1262.47,393.65,1261.14,392.08,1261.14,389.74Z"/><path class="cls-4" d="M1264.67,407.31v2.25h-13.79v-2.25Z"/><path class="cls-4" d="M1250,423.05v1.26h7.22v5.56H1250v1.26h7.44v2.25h-10v-5.76h7.94v-1.06h-7.94v-5.77h10v2.26Z"/><path class="cls-4" d="M1258.62,429.71h2.52c0,1.29,1.44,1.74,2.68,1.74s2.41-.36,2.41-1.58c0-.83-.61-1.12-1.83-1.46l-2-.58c-2.72-.77-3.4-2.08-3.4-3.51,0-2.52,2.14-3.81,4.81-3.81,2.34,0,4.78,1,4.78,3.85h-2.52c0-1.06-1-1.66-2.39-1.66s-2.16.61-2.16,1.43c0,.5.27,1,1.42,1.31l2,.58c2.9.82,3.81,2,3.81,3.71,0,2.75-2.25,3.92-4.93,3.92C1260.71,433.65,1258.62,432.07,1258.62,429.71Z"/><path class="cls-4" d="M1264.67,447.31v2.25h-13.79v-2.25Z"/><path class="cls-4" d="M1247.07,460.78h8.37V463h-5.85v3.2h5.33v2.25h-5.33v4.9h-2.52Z"/><path class="cls-4" d="M1263.85,468.66h4.61v4.72h-2.52v-2.47h-4.61v-5.83H1266V463h-6.34v10.35h-2.52v-12.6h11.38v6.55h-4.66Z"/><path class="cls-4" d="M23,403.11H20.5v-12.6H23Z"/><path class="cls-4" d="M28.08,410.51v12.6h-7.4V412.76H18v10.35H15.45v-12.6H23.2v10.35h2.36V410.51Z"/><path class="cls-4" d="M18,430.51h8.37v2.25H20.53V436h5.33v2.25H20.53v4.9H18Z"/><path class="cls-4" d="M15.69,456.81c0-3.73,2.27-6.57,6.07-6.57s6.08,2.84,6.08,6.57-2.27,6.57-6.08,6.57S15.69,460.53,15.69,456.81Zm9.63,0c0-2.29-1.3-4.32-3.56-4.32s-3.55,2-3.55,4.32,1.3,4.32,3.55,4.32S25.32,459.09,25.32,456.81Z"/></svg>