<svg id="Layer_1" data-name="Layer 1" xmlns="http://www.w3.org/2000/svg" viewBox="0 0 1280 708"><defs><style>.cls-1{fill:#eec860;}</style></defs><path class="cls-1" d="M25.62,284.32c-6.92,4.37-10.37,6.59-17.23,11.1q5.31-47,10.63-94C25.76,197,29.15,194.77,36,190.47Q30.79,237.39,25.62,284.32Z"/><path class="cls-1" d="M87.11,160q28.92-16,58.54-30.62c-.55,6.13-.83,9.2-1.39,15.33q-20.76,10.23-41.18,21.07c-.86,8.76-1.29,13.14-2.16,21.91q18.69-9.94,37.63-19.35l-1.4,15.33q-19,9.45-37.74,19.4-1.65,16.74-3.29,33.47c-7.13,3.84-10.68,5.79-17.76,9.76Q82.73,203.15,87.11,160Z"/><path class="cls-1" d="M151.37,176q2.31-25.78,4.61-51.56c7.16-3.4,10.75-5.06,18-8.32q-2.2,25.56-4.4,51.12c-2.35,11.17,6,18.53,16.62,12.89,11-5.83,19.36-15.63,20.47-28.88l4-51c7.29-3,10.94-4.46,18.27-7.32q-2,25.64-3.91,51.27c-2.14,24-18.95,41.66-40.15,51.17C166.69,203.54,148.38,199.54,151.37,176Z"/><path class="cls-1" d="M263.76,94.83q-13.59,4.77-27.06,9.91c.46-6.09.69-9.13,1.14-15.21Q274,76,310.78,64.59c-.37,6.06-.56,9.08-.93,15.14q-13.8,4.18-27.5,8.75-2.33,34.88-4.64,69.76c-7.54,2.51-11.31,3.8-18.82,6.44Q261.32,129.76,263.76,94.83Z"/><path class="cls-1" d="M316.82,112.84q1.51-25.49,3-51c7.5-2.21,11.25-3.28,18.77-5.36l-2.85,50.55c-1.8,11.53,6.71,19.35,18.06,15.67,11.77-3.81,20-12.67,20.58-25.62l2.49-50.46c7.57-1.81,11.37-2.68,19-4.36q-1.15,25.4-2.32,50.78c-.33,23.36-19.56,39.12-40.51,44.77C333.37,143.14,314.72,136,316.82,112.84Z"/><path class="cls-1" d="M413.39,38.57q20.82-4.16,41.74-7.72c15.25-3.52,33.09,3.62,32.26,21.5-.72,15.38-15.25,27.15-29.9,29l-1.24.2q15.69,14.11,31.3,28.29c-10.31,1.38-15.47,2.13-25.76,3.75Q446.2,98.74,430.54,84q-.68,17.58-1.37,35.17c-7.76,1.45-11.63,2.21-19.37,3.79Q411.6,80.76,413.39,38.57ZM449.8,69.92C463,67.68,468,63,468.23,55.34c.27-8.54-5.54-10.81-17.6-8.77-7.51,1.27-11.27,1.93-18.76,3.33-.36,9.35-.55,14-.91,23.37C438.49,71.87,442.26,71.2,449.8,69.92Z"/><path class="cls-1" d="M565.44,81.71q-23.06,1.62-46,3.93c-3.41,8.51-5.12,12.77-8.56,21.31-8.1.92-12.15,1.41-20.24,2.47q18.3-44,36.43-88.11,16.53-1.57,33.07-2.82,16.62,41.12,33.51,82.13c-8.14.33-12.2.53-20.34,1C570.13,93.64,568.56,89.66,565.44,81.71ZM525.72,70q17-1.62,33.94-2.9-8.14-19.86-16.23-39.75Q534.6,48.68,525.72,70Z"/><path class="cls-1" d="M660.58,30.86q-14.21-.28-28.41-.16l0-15c25.42,0,50.74.64,76.12,2l.19,15q-14.25-.89-28.52-1.37l.51,69c-7.85-.28-11.78-.39-19.64-.53Z"/><path class="cls-1" d="M719.48,18.46q21.1,1.59,42.16,3.76c16.85,1.61,32.79,12.76,33.88,30.52.94,15.37-15.73,22.29-28.55,21l-1.25-.14Q782.45,92.09,799,110.72c-10.31-1.44-15.47-2.1-25.81-3.3Q756.51,88.16,739.69,69q.33,17.54.65,35.08c-7.84-.69-11.76-1-19.6-1.55Zm39,41.66c13.31,1.39,18-1.92,17.85-9.62C776.13,42,770.12,38.08,758,36.81c-7.56-.79-11.35-1.15-18.92-1.81.17,9.32.26,14,.43,23.3C747.1,59,750.9,59.33,758.49,60.12Z"/><path class="cls-1" d="M804.53,69.59c-1.11-25.89,20-41.27,44.72-36.22,26.3,5.37,46.28,26.57,48,53.67,1.71,26.6-20.75,38.64-44.57,34.27C827.49,116.67,805.68,96.16,804.53,69.59Zm73.6,13.2c-1.23-15-13.25-31.15-28.29-34.36s-26.13,10.24-26,24.15c.16,16,12.69,30.84,28.25,33.67C866.75,108.91,879.39,98,878.13,82.79Zm-5.08-51.13c-16-3.39-32.07-6.37-48.19-9.07-.15-4.47-.23-6.71-.39-11.19,16.09,2.69,32.13,5.66,48.09,9C872.75,24.93,872.85,27.17,873.05,31.66Z"/><path class="cls-1" d="M983.72,95.11c1.54,17.94-16.18,23.59-30.6,18.38-8.88-2.53-13.34-3.75-22.26-6.1l1.62,30.1c-7.66-2-11.5-3-19.18-4.87L909,48.09Q929.59,53.22,950,58.92C966.67,63.59,982.18,77.11,983.72,95.11Zm-18.64-5.73c-.52-8.6-6.44-13.15-18.28-16.48-7.21-2-10.82-3-18.06-4.91.52,9.72.78,14.58,1.31,24.29,7.27,1.92,10.9,2.9,18.14,4.94C961.17,100.86,965.6,98,965.08,89.38Z"/><path class="cls-1" d="M1018.57,163.79c-7.52-2.63-11.29-3.91-18.84-6.4l-5.61-84.91c7.44,2.45,11.15,3.71,18.55,6.29Q1015.61,121.28,1018.57,163.79Z"/><path class="cls-1" d="M1029.18,126.11c-2.37-25.66,18.22-36.93,40.66-27.4,17.62,7.48,35.07,23.79,38.73,43.45-7.24-3.28-10.87-4.88-18.15-8-2.86-9.2-11.12-16.23-19.24-20.13-14.19-6.82-24.53,5.49-23.47,18.9,1.35,16.95,12.67,33.21,28.4,39.74,11.15,4.64,18.25,1.34,18.58-3.81,7.32,3.17,11,4.79,18.25,8.1,1.59,20.68-24.89,14.76-35.35,11.07C1052.59,179.15,1031.73,153.69,1029.18,126.11Z"/><path class="cls-1" d="M1182.34,215.9q-20.85-11.27-42.19-21.6c-2.23,6.88-3.36,10.32-5.62,17.22-7.52-3.59-11.29-5.35-18.86-8.79Q1128,167.5,1140,132.13q15.25,7.6,30.32,15.52,19.92,51.72,39.83,103.43c-7.3-4.17-11-6.22-18.33-10.26C1188,230.84,1186.1,225.85,1182.34,215.9Zm-38.07-34.23q15.64,7.82,31.11,15.93l-19.49-50.1Q1150.15,164.62,1144.27,181.67Z"/><path class="cls-1" d="M1271.61,295.42c-6.86-4.51-10.3-6.73-17.23-11.1q-5.16-46.93-10.33-93.85c6.8,4.3,10.19,6.48,16.93,10.91Q1266.3,248.4,1271.61,295.42Z"/><path class="cls-1" d="M1248.45,325v3H1254v2.25h-5.56v2.88h6.1v2.25h-8.62v-12.6h8.62V325Z"/><path class="cls-1" d="M1261.14,331.74c0-2.34,1.35-4.08,1.35-5.47a1.47,1.47,0,0,0-1.64-1.51c-1,0-1.8.61-1.8,2.25s.78,3.08.78,4.7c0,2.09-1.3,3.67-4.16,3.67v-2.25a1.55,1.55,0,0,0,1.63-1.66c0-1.08-.77-2.48-.77-4.53,0-3.1,1.71-4.43,4.52-4.43s4,1.42,4,3.35-1.35,3.38-1.35,5.41c0,1.25.5,2.13,1.65,2.13s1.81-.77,1.81-2.32-.87-3-.87-4.79c0-2.18,1.28-3.51,4.25-3.51V325c-1.06,0-1.73.47-1.73,1.46s.87,2.64.87,4.8c0,3-1.68,4.36-4.33,4.36C1262.47,335.65,1261.14,334.08,1261.14,331.74Z"/><path class="cls-1" d="M1264.67,349.31v2.25h-13.79v-2.25Z"/><path class="cls-1" d="M1250,365.05v1.26h7.22v5.56H1250v1.26h7.44v2.25h-10v-5.76h7.94v-1.06h-7.94v-5.77h10v2.26Z"/><path class="cls-1" d="M1258.62,371.71h2.52c0,1.29,1.44,1.74,2.68,1.74s2.41-.36,2.41-1.58c0-.83-.61-1.12-1.83-1.46l-2-.58c-2.72-.77-3.4-2.08-3.4-3.51,0-2.52,2.14-3.81,4.81-3.81,2.34,0,4.78,1,4.78,3.85h-2.52c0-1.06-1-1.66-2.39-1.66s-2.16.61-2.16,1.43c0,.5.27,1,1.42,1.31l2,.58c2.9.82,3.81,2,3.81,3.71,0,2.75-2.25,3.92-4.93,3.92C1260.71,375.65,1258.62,374.07,1258.62,371.71Z"/><path class="cls-1" d="M1264.67,389.31v2.25h-13.79v-2.25Z"/><path class="cls-1" d="M1247.07,402.78h8.37V405h-5.85v3.2h5.33v2.25h-5.33v4.9h-2.52Z"/><path class="cls-1" d="M1263.85,410.66h4.61v4.72h-2.52v-2.47h-4.61v-5.83H1266V405h-6.34v10.35h-2.52v-12.6h11.38v6.55h-4.66Z"/><path class="cls-1" d="M23,345.11H20.5v-12.6H23Z"/><path class="cls-1" d="M28.08,352.51v12.6h-7.4V354.76H18v10.35H15.45v-12.6H23.2v10.35h2.36V352.51Z"/><path class="cls-1" d="M18,372.51h8.37v2.25H20.53V378h5.33v2.25H20.53v4.9H18Z"/><path class="cls-1" d="M15.69,398.81c0-3.73,2.27-6.57,6.07-6.57s6.08,2.84,6.08,6.57-2.27,6.57-6.08,6.57S15.69,402.53,15.69,398.81Zm9.63,0c0-2.29-1.3-4.32-3.56-4.32s-3.55,2-3.55,4.32,1.3,4.32,3.55,4.32S25.32,401.09,25.32,398.81Z"/><path class="cls-1" d="M9.62,465.08C6.07,457,4.3,453,.75,444.89a1298,1298,0,0,0,132.53,72.79l7,19.18A1289.52,1289.52,0,0,1,9.62,465.08Z"/><path class="cls-1" d="M281.73,641q-13.39-47.13-26.8-94.26c-10.42,24.44-19.72,49.09-27.92,74.36-15.07-5.9-30-12.19-44.77-18.73l-37.57-106.6q12.77,5.68,25.7,11.06l32.52,96.54c7.66-25.06,16.44-49.51,26.36-73.77q24.62,8.65,49.49,16.49,13.69,51.39,27.4,102.78C296.35,645.86,291.47,644.28,281.73,641Z"/><path class="cls-1" d="M412.57,659c1.32,7.18,2,10.76,3.29,17.94Q373,668,331,656.27,318.33,605.2,305.66,554.1q45.55,12.72,91.81,22.31c1.31,7.18,2,10.77,3.28,17.94q-32.29-6.71-64.23-14.84l5.33,23.23q28.56,7.47,57.5,13.43c1.34,7.19,2,10.78,3.36,18q-28.5-5.91-56.69-13.24l5.5,24Q381.91,652.58,412.57,659Z"/><path class="cls-1" d="M447.21,585.41c10.87,1.73,16.31,2.54,27.21,4q5.15,40.88,10.31,81.73,18.78,2.57,37.65,4.51l1.7,17.7q-49.8-5.42-99-14.64L422,660.81q18.56,3.6,37.23,6.57Z"/><path class="cls-1" d="M530.39,595.76c10.94,1,16.42,1.42,27.37,2.15q1.31,20.63,2.6,41.24,21.55-19.68,43.43-39,18.12.52,36.26.53-22.24,18.87-44.32,37.93l1.72.06c17.11.48,40,9.19,40.17,29.64.15,23.17-24.23,31.11-43.6,30.08q-27.72-1.27-55.33-3.6Q534.53,645.27,530.39,595.76Zm30.76,56c.69,10.95,1,16.43,1.72,27.39,10.06.68,15.09,1,25.16,1.41,9.23.53,24.07-.34,23.75-12.83s-15.31-14.21-24.91-14.53C576.57,652.7,571.43,652.41,561.15,651.72Z"/><path class="cls-1" d="M715.79,596.19c29.2-2.1,64.56,10.58,60.53,45.84-3.74,32.82-35.11,55.48-66.54,57.21-29.37,1.62-61.44-16.35-60.52-49.29C650.25,614.68,684.83,598.42,715.79,596.19Zm-1,17.65c-19.49,1.3-38.46,14.59-39.1,35.6-.6,19.77,16,33.44,35.15,32.16,19.78-1.33,37.28-16.64,39.22-36.8C752.05,623.94,733.69,612.57,714.76,613.84Z"/><path class="cls-1" d="M857.65,579c28.26-5.47,61.9,3.7,54.07,39.08-7.4,33.49-38.81,58.87-71.29,65.33-29.3,5.82-57.9-10.44-54.37-42.57C790,605.45,825.92,585.14,857.65,579Zm-2.95,17.87c-19.46,4.31-38.91,19.73-42.43,40.38-3.17,18.65,13.32,31.83,31.11,28.28,20.25-4,38.12-21.25,42.45-41.59C890,604.3,872.51,592.94,854.7,596.88Z"/><path class="cls-1" d="M965.65,556.4c10.67-2.95,16-4.49,26.6-7.69l-22,84.26q18.33-5.52,36.46-11.66l-5.3,18.48q-47.85,15.9-96.72,28c1.55-7.23,2.33-10.84,3.88-18.07q18.45-4.46,36.74-9.52Q955.49,598.29,965.65,556.4Z"/><path class="cls-1" d="M1092.32,511.75c13.22-5.27,49.06-15.8,38.58,11.84-8.14,21.49-29.68,35.56-48.4,47.46-8.55,5.18-12.82,7.72-21.35,12.72-12.18,7.1-16.08,12.06-17.38,16.24-2.08,6.72,3.1,9.44,17.2,3.75,11.16-4.5,22.84-11.73,27.71-23.33,9.75-4.12,14.6-6.23,24.27-10.58-8.89,24.66-33.42,42.29-56.74,51.76-12.79,5.21-45.22,10.78-36.67-14.3,6.63-19.46,26-31.1,42.61-41.4,8.65-5,13-7.55,21.65-12.72,8.24-4.63,19.06-10.59,22.43-19.83,3.66-10-8.73-7.72-19.89-3.27-11.95,4.77-26.8,12.26-31.83,25-10.21,3.79-15.34,5.62-25.62,9.17C1037.45,537.81,1068.38,521.29,1092.32,511.75Z"/><path class="cls-1" d="M1139.2,536.86l7-19.18a1298.89,1298.89,0,0,0,132.52-72.79c-3.54,8.08-5.32,12.12-8.86,20.19A1289.67,1289.67,0,0,1,1139.2,536.86Z"/></svg>