<svg id="Layer_1" data-name="Layer 1" xmlns="http://www.w3.org/2000/svg" viewBox="0 0 1279.22 296.02"><defs><style>.cls-1{fill:#eec860;}</style></defs><path class="cls-1" d="M25.23,277.92C18.31,282.29,14.86,284.51,8,289q5.31-47,10.63-94c6.74-4.43,10.13-6.61,16.93-10.91Q30.4,231,25.23,277.92Z"/><path class="cls-1" d="M86.72,153.59q28.92-16,58.54-30.61c-.55,6.13-.83,9.2-1.39,15.33q-20.76,10.23-41.18,21.07c-.86,8.76-1.29,13.14-2.16,21.9q18.69-9.93,37.63-19.34l-1.4,15.33q-19,9.45-37.74,19.4-1.65,16.74-3.29,33.47C88.6,234,85.05,235.93,78,239.9Q82.35,196.75,86.72,153.59Z"/><path class="cls-1" d="M151,169.59q2.31-25.78,4.61-51.57c7.16-3.39,10.75-5,17.95-8.31q-2.21,25.56-4.4,51.12c-2.35,11.17,6,18.53,16.62,12.89,11-5.83,19.36-15.63,20.47-28.89l4.05-51c7.29-3,10.94-4.46,18.27-7.32q-2,25.64-3.91,51.27c-2.14,24-18.95,41.66-40.15,51.16C166.3,197.14,148,193.13,151,169.59Z"/><path class="cls-1" d="M263.37,88.43q-13.59,4.77-27.06,9.91c.46-6.09.69-9.13,1.14-15.22Q273.6,69.6,310.39,58.19c-.37,6.06-.56,9.08-.93,15.14q-13.8,4.19-27.5,8.75-2.31,34.88-4.64,69.76c-7.54,2.51-11.31,3.8-18.82,6.44Q260.93,123.36,263.37,88.43Z"/><path class="cls-1" d="M316.43,106.44q1.51-25.48,3-51c7.5-2.21,11.25-3.28,18.77-5.36l-2.85,50.55c-1.8,11.53,6.71,19.35,18.06,15.67,11.77-3.81,20-12.67,20.58-25.62l2.49-50.46c7.57-1.81,11.37-2.68,19-4.36q-1.16,25.39-2.32,50.78c-.33,23.36-19.56,39.12-40.51,44.77C333,136.74,314.33,129.64,316.43,106.44Z"/><path class="cls-1" d="M413,32.17q20.82-4.16,41.74-7.72C470,20.93,487.83,28.06,487,46c-.72,15.38-15.25,27.15-29.9,29l-1.24.2q15.69,14.12,31.3,28.29c-10.31,1.38-15.47,2.13-25.76,3.75q-15.58-14.83-31.25-29.58-.67,17.58-1.37,35.17c-7.76,1.45-11.63,2.2-19.37,3.79Q411.21,74.36,413,32.17Zm36.41,31.35c13.22-2.24,18.18-6.88,18.43-14.58.27-8.54-5.54-10.81-17.6-8.78-7.51,1.28-11.27,1.94-18.76,3.34-.36,9.35-.55,14-.91,23.37C438.1,65.46,441.87,64.79,449.41,63.52Z"/><path class="cls-1" d="M565.05,75.31Q542,76.93,519,79.24c-3.42,8.51-5.13,12.77-8.57,21.31-8.1.92-12.15,1.41-20.24,2.47q18.31-44,36.43-88.11,16.53-1.58,33.07-2.82,16.62,41.11,33.51,82.13c-8.14.33-12.2.53-20.34,1C569.74,87.24,568.17,83.26,565.05,75.31ZM525.33,63.6q17-1.62,33.94-2.9Q551.13,40.84,543,21,534.2,42.28,525.33,63.6Z"/><path class="cls-1" d="M660.19,24.46q-14.21-.29-28.41-.16l0-15c25.42,0,50.74.64,76.12,2l.19,15q-14.25-.89-28.52-1.37l.51,69c-7.85-.28-11.78-.39-19.64-.53Z"/><path class="cls-1" d="M719.09,12.06q21.1,1.59,42.16,3.75c16.86,1.62,32.79,12.77,33.88,30.53.94,15.37-15.73,22.29-28.55,21l-1.25-.14q16.73,18.48,33.29,37.11c-10.31-1.44-15.47-2.1-25.81-3.3Q756.12,81.75,739.3,62.59q.33,17.53.65,35.07c-7.84-.68-11.76-1-19.6-1.54Zm39,41.66c13.31,1.39,18-1.92,17.85-9.62-.21-8.53-6.22-12.42-18.36-13.69-7.56-.79-11.35-1.15-18.92-1.81.17,9.32.26,14,.43,23.3C746.71,52.56,750.51,52.93,758.1,53.72Z"/><path class="cls-1" d="M804.15,63.19C803,37.3,824.18,21.92,848.86,27c26.3,5.37,46.28,26.57,48,53.67,1.71,26.6-20.75,38.64-44.57,34.27C827.1,110.27,805.29,89.76,804.15,63.19Zm73.59,13.2c-1.23-15-13.25-31.15-28.29-34.36s-26.13,10.24-26,24.14c.16,16,12.69,30.85,28.25,33.68C866.36,102.51,879,91.56,877.74,76.39Zm-5.08-51.13c-16-3.39-32.07-6.37-48.19-9.07-.15-4.47-.23-6.71-.39-11.19,16.09,2.69,32.13,5.66,48.09,9C872.36,18.53,872.46,20.77,872.66,25.26Z"/><path class="cls-1" d="M983.33,88.71c1.54,17.94-16.18,23.59-30.6,18.38-8.88-2.53-13.34-3.75-22.26-6.1l1.62,30.1c-7.66-2-11.5-3-19.18-4.87l-4.26-84.53q20.55,5.13,40.92,10.83C966.28,57.19,981.79,70.71,983.33,88.71ZM964.69,83c-.51-8.6-6.44-13.15-18.28-16.48-7.21-2-10.82-3-18.06-4.91.52,9.72.78,14.58,1.31,24.29,7.27,1.92,10.9,2.9,18.14,4.94C960.78,94.46,965.21,91.58,964.69,83Z"/><path class="cls-1" d="M1018.18,157.38c-7.52-2.62-11.29-3.9-18.84-6.39l-5.61-84.91c7.44,2.45,11.15,3.71,18.55,6.29Q1015.24,114.88,1018.18,157.38Z"/><path class="cls-1" d="M1028.79,119.71c-2.37-25.66,18.22-36.93,40.66-27.4,17.62,7.48,35.07,23.79,38.73,43.45-7.24-3.28-10.87-4.88-18.15-8-2.86-9.2-11.12-16.23-19.24-20.13-14.19-6.82-24.53,5.49-23.47,18.9,1.35,16.94,12.67,33.21,28.4,39.74,11.16,4.64,18.25,1.34,18.58-3.81,7.32,3.17,11,4.79,18.25,8.1,1.59,20.68-24.89,14.76-35.35,11.06C1052.2,172.75,1031.34,147.29,1028.79,119.71Z"/><path class="cls-1" d="M1182,209.5q-20.85-11.26-42.19-21.6c-2.23,6.88-3.35,10.32-5.62,17.22-7.52-3.59-11.29-5.35-18.86-8.8q12.36-35.22,24.28-70.6,15.26,7.62,30.32,15.53,19.92,51.72,39.83,103.43c-7.3-4.17-11-6.22-18.33-10.26C1187.6,224.44,1185.72,219.45,1182,209.5Zm-38.07-34.23q15.64,7.81,31.11,15.93-9.73-25-19.49-50.1Q1149.76,158.21,1143.88,175.27Z"/><path class="cls-1" d="M1271.22,289c-6.86-4.51-10.3-6.73-17.22-11.1q-5.18-46.94-10.34-93.85c6.8,4.3,10.19,6.48,16.93,10.91Q1265.92,242,1271.22,289Z"/></svg>