<svg id="Layer_1" data-name="Layer 1" xmlns="http://www.w3.org/2000/svg" viewBox="0 0 26.59 15.14"><defs><style>.cls-1{fill:#eec860;}</style></defs><path class="cls-1" d="M5.05,3.54V4.8h7.22v5.56H5.05v1.26h7.44v2.25h-10V8.11h7.94V7.05H2.53V1.29h10V3.54Z"/><path class="cls-1" d="M13.69,10.2h2.52c0,1.3,1.44,1.75,2.68,1.75s2.42-.36,2.42-1.59c0-.82-.62-1.11-1.84-1.46l-2-.57c-2.72-.78-3.4-2.09-3.4-3.51C14.05,2.3,16.19,1,18.86,1c2.34,0,4.79,1,4.79,3.85H21.13c0-1.06-1-1.65-2.4-1.65s-2.16.61-2.16,1.42c0,.5.27,1,1.42,1.31l2,.58c2.9.83,3.82,2,3.82,3.71,0,2.75-2.25,3.92-4.94,3.92C15.78,14.14,13.69,12.56,13.69,10.2Z"/></svg>