<svg id="Layer_1" data-name="Layer 1" xmlns="http://www.w3.org/2000/svg" viewBox="0 0 75.53 17.39"><defs><style>.cls-1{fill:#eec860;}</style></defs><path class="cls-1" d="M11.52,4.81c0-2.07-1.66-3.55-4.29-3.55H1V13.44H6.71c2.77,0,4.18-1.29,4.18-3.08A2.75,2.75,0,0,0,9.46,7.8,3,3,0,0,0,11.52,4.81Zm-8,3.77h3.1c1.17,0,1.74.58,1.74,1.41s-.57,1.45-1.74,1.45H3.52ZM9,4.93c0,1.15-.88,1.65-2.3,1.65H3.52V3.26H6.73C8.15,3.26,9,3.8,9,4.93Z"/><path class="cls-1" d="M12.57,7.35c0,3.6,2.27,6.35,6.07,6.35S24.73,11,24.73,7.35,22.46,1,18.64,1,12.57,3.75,12.57,7.35Zm9.64,0c0,2.21-1.3,4.17-3.57,4.17s-3.55-2-3.55-4.17,1.3-4.18,3.55-4.18S22.21,5.14,22.21,7.35Z"/><path class="cls-1" d="M37.4,5.35V1.26H35.51V2.62A5.11,5.11,0,0,0,31.57,1c-3.5,0-5.91,2.64-5.91,6.37a5.94,5.94,0,0,0,6.25,6.33c3.72,0,5.2-2.47,5.26-3.95H34.64c-.16.82-1,1.77-2.77,1.77-2.32,0-3.69-1.74-3.69-4.22s1.22-4.13,3.66-4.13A3.43,3.43,0,0,1,35.31,5.4H31.1v2h4.23Z"/><path class="cls-1" d="M38.58,7.35c0,3.6,2.27,6.35,6.07,6.35S50.74,11,50.74,7.35,48.47,1,44.65,1,38.58,3.75,38.58,7.35Zm9.64,0c0,2.21-1.3,4.17-3.57,4.17s-3.55-2-3.55-4.17,1.3-4.18,3.55-4.18S48.22,5.14,48.22,7.35Z"/><path class="cls-1" d="M54.8,11.26H51.11v2.18H61V11.26H57.32v-10H54.8Z"/><path class="cls-1" d="M70.88,4.22H64.94l-1-3H61.28l4.47,12.18h4.32L74.53,1.26H71.92ZM65.71,6.39H70.1l-2.19,6Zm2.43,10h3l-2.18-2H66.38Z"/></svg>