<svg id="Layer_1" data-name="Layer 1" xmlns="http://www.w3.org/2000/svg" viewBox="0 0 109.64 14.6"><defs><style>.cls-1{fill:#eec860;}</style></defs><path class="cls-1" d="M11.52,4.78c0-2.05-1.66-3.52-4.29-3.52H1V13.34H6.71c2.77,0,4.17-1.27,4.17-3.05A2.71,2.71,0,0,0,9.46,7.75,3,3,0,0,0,11.52,4.78Zm-8,3.75h3.1c1.17,0,1.74.57,1.74,1.4s-.57,1.43-1.74,1.43H3.52ZM9,4.9C9,6,8.11,6.54,6.69,6.54H3.52V3.24H6.73C8.15,3.24,9,3.78,9,4.9Z"/><path class="cls-1" d="M15.81,11.19V8.34h5.57V6.18H15.81V3.42h6.11V1.26H13.29V13.34h8.63V11.19Z"/><path class="cls-1" d="M36.57,13.34V1.26h-7.4v9.93h-2.7V1.26H24V13.34h7.74V3.42h2.36v9.92Z"/><path class="cls-1" d="M50.14,5.32V1.26H48.25V2.61A5.11,5.11,0,0,0,44.31,1C40.82,1,38.4,3.62,38.4,7.32a5.91,5.91,0,0,0,6.25,6.28c3.73,0,5.2-2.45,5.26-3.92H47.39c-.16.82-1,1.77-2.77,1.77-2.33,0-3.7-1.73-3.7-4.2s1.23-4.09,3.66-4.09a3.42,3.42,0,0,1,3.47,2.21H43.84v2h4.23Z"/><path class="cls-1" d="M60.44,4.19H54.5l-1-2.93H50.84l4.47,12.08h4.32L64.09,1.26H61.48ZM55.27,6.35h4.39l-2.19,5.91Z"/><path class="cls-1" d="M65.44,13.34H68V3.42h5.38V1.26h-7.9Z"/><path class="cls-1" d="M74.56,6.08v7.26h2.53V6.13c0-1.85.66-3,2.53-3s2.58,1.12,2.58,3v7.21h2.52V6.08c0-3.47-2.16-5.08-5.1-5.08S74.56,2.61,74.56,6.08Z"/><path class="cls-1" d="M87,13.34h5.51c2.83,0,4.34-1.5,4.34-3.79A3.54,3.54,0,0,0,93.09,6h-.16l4.19-4.75H93.79l-4.23,5v-5H87Zm5-5.5c1.72,0,2.36.57,2.36,1.67s-.78,1.68-2.36,1.68H89.56V7.84Z"/><path class="cls-1" d="M98.49,6.08v7.26H101V6.13c0-1.85.66-3,2.54-3s2.57,1.12,2.57,3v7.21h2.52V6.08c0-3.47-2.16-5.08-5.09-5.08S98.49,2.61,98.49,6.08Z"/></svg>